<svg xmlns="http://www.w3.org/2000/svg" xmlns:xlink="http://www.w3.org/1999/xlink" width="500" zoomAndPan="magnify" viewBox="0 0 375 374.999991" height="500" preserveAspectRatio="xMidYMid meet" version="1.0"><defs><filter x="0%" y="0%" width="100%" height="100%" id="d832d1a0d9"><feColorMatrix values="0 0 0 0 1 0 0 0 0 1 0 0 0 0 1 0 0 0 1 0" color-interpolation-filters="sRGB"/></filter><g/><mask id="aec3dcd984"><g filter="url(#d832d1a0d9)"><rect x="-37.5" width="450" fill="#000000" y="-37.499999" height="449.999989" fill-opacity="0.48"/></g></mask><clipPath id="8467a38509"><path d="M 0.289062 4.160156 L 238.71875 4.160156 L 238.71875 289 L 0.289062 289 Z M 0.289062 4.160156 " clip-rule="nonzero"/></clipPath><clipPath id="62581b7c5f"><rect x="0" width="239" y="0" height="289"/></clipPath></defs><g mask="url(#aec3dcd984)"><g transform="matrix(1, 0, 0, 1, 68, 41)"><g clip-path="url(#62581b7c5f)"><g clip-path="url(#8467a38509)"><path fill="#ffffff" d="M 108.949219 4.160156 C 106.964844 4.699219 105.183594 6.207031 104.5 7.46875 C 103.710938 8.988281 103.449219 10.488281 103.257812 11.917969 C 103.214844 12.96875 103.023438 14.335938 102.949219 15.125 C 101.519531 15.867188 99.746094 18.007812 99.636719 20.503906 C 99.636719 20.539062 99.640625 20.574219 99.636719 20.605469 C 99.605469 22.679688 100.726562 24.480469 101.914062 25.46875 C 102.253906 25.75 102.605469 25.777344 102.949219 25.984375 L 102.949219 85.257812 C 97.222656 89.164062 91.832031 94.8125 87.640625 100.878906 C 83.0625 107.503906 79.777344 114.179688 79.777344 120.015625 L 79.777344 272.28125 C 79.777344 277.535156 83.417969 281.738281 88.257812 284.488281 C 93.097656 287.234375 99.4375 288.832031 106.257812 288.832031 C 115.085938 288.832031 123.914062 288.832031 132.738281 288.832031 C 139.5625 288.832031 145.898438 287.234375 150.738281 284.488281 C 155.578125 281.738281 159.21875 277.535156 159.21875 272.28125 L 159.21875 120.015625 C 159.21875 114.179688 155.9375 107.503906 151.359375 100.878906 C 147.167969 94.8125 141.777344 89.164062 136.050781 85.257812 L 136.050781 25.984375 C 136.394531 25.78125 136.746094 25.75 137.085938 25.46875 C 138.269531 24.480469 139.394531 22.679688 139.359375 20.605469 C 139.359375 20.570312 139.359375 20.539062 139.359375 20.503906 C 139.253906 18.007812 137.476562 15.867188 136.050781 15.125 C 135.949219 14.449219 135.828125 12.808594 135.738281 11.917969 C 135.550781 10.488281 135.285156 8.988281 134.496094 7.46875 C 133.292969 5.371094 131.917969 4.277344 129.636719 4.160156 C 122.558594 4.160156 115.21875 4.160156 108.949219 4.160156 Z M 110.292969 10.78125 C 116.429688 10.78125 122.566406 10.78125 128.707031 10.78125 C 128.875 11.175781 129.101562 11.925781 129.222656 12.847656 C 129.359375 13.867188 129.414062 14.980469 129.429688 15.847656 C 129.429688 16.53125 129.429688 17.210938 129.429688 17.8125 C 129.351562 19.472656 130.847656 20.269531 132.117188 20.710938 C 130.601562 21 129.402344 22.476562 129.429688 24.019531 L 129.429688 86.914062 C 129.433594 88.023438 130.039062 89.117188 130.980469 89.707031 C 136.066406 92.8125 141.722656 98.691406 145.875 104.707031 C 150.03125 110.71875 152.601562 117.171875 152.601562 120.015625 L 152.601562 272.28125 C 152.601562 274.355469 151.023438 276.652344 147.429688 278.695312 C 143.835938 280.734375 138.527344 282.210938 132.738281 282.210938 C 123.914062 282.210938 115.085938 282.210938 106.257812 282.210938 C 100.472656 282.210938 95.164062 280.734375 91.570312 278.695312 C 87.976562 276.652344 86.398438 274.355469 86.398438 272.28125 L 86.398438 120.015625 C 86.398438 117.171875 88.964844 110.71875 93.121094 104.707031 C 97.277344 98.691406 102.929688 92.8125 108.015625 89.707031 C 108.957031 89.117188 109.566406 88.023438 109.570312 86.914062 L 109.570312 24.019531 C 109.59375 22.476562 108.394531 21 106.878906 20.710938 C 108.621094 20.289062 109.507812 19.480469 109.570312 17.8125 C 109.574219 17.148438 109.570312 16.414062 109.570312 15.847656 C 109.582031 14.980469 109.640625 13.867188 109.777344 12.847656 C 109.898438 11.925781 110.121094 11.175781 110.292969 10.78125 Z M 29.503906 33.949219 C 27.820312 34.132812 26.40625 34.859375 25.261719 36.535156 C 24.355469 37.871094 24.023438 39.273438 23.816406 40.46875 C 23.6875 41.210938 23.644531 41.714844 23.609375 42.328125 C 22.960938 42.605469 22.234375 43 21.539062 43.777344 C 20.78125 44.628906 20.234375 45.933594 20.195312 47.191406 C 20.089844 49.441406 21.671875 51.078125 22.882812 51.847656 C 23.101562 51.984375 23.289062 51.941406 23.503906 52.054688 L 23.503906 95.085938 C 17.917969 98.117188 12.53125 102.410156 8.402344 107.1875 C 3.78125 112.535156 0.335938 117.746094 0.335938 123.015625 L 0.335938 238.972656 C 0.335938 241.414062 1.519531 243.648438 3.125 245.28125 C 4.734375 246.917969 6.84375 248.078125 9.230469 249.109375 C 14.003906 251.175781 20.117188 252.421875 26.816406 252.421875 L 56.605469 252.421875 C 58.355469 252.445312 59.964844 250.859375 59.964844 249.109375 C 59.964844 247.359375 58.355469 245.773438 56.605469 245.800781 L 26.816406 245.800781 C 20.90625 245.800781 15.476562 244.691406 11.816406 243.109375 C 9.988281 242.320312 8.652344 241.40625 7.886719 240.628906 C 7.117188 239.847656 6.953125 239.324219 6.953125 238.972656 L 6.953125 123.015625 C 6.953125 121.671875 9.359375 116.289062 13.472656 111.53125 C 17.582031 106.777344 23.085938 102.203125 28.160156 99.84375 C 29.3125 99.332031 30.117188 98.105469 30.125 96.84375 L 30.125 49.777344 C 30.171875 48.628906 29.664062 47.484375 28.882812 47.191406 C 29.808594 46.921875 30.117188 46.171875 30.125 45.328125 C 30.136719 44.773438 30.125 44.183594 30.125 43.675781 C 30.140625 43.046875 30.214844 42.273438 30.332031 41.605469 C 30.421875 41.09375 30.550781 40.777344 30.640625 40.570312 C 36.917969 40.570312 43.195312 40.570312 49.46875 40.570312 C 49.558594 40.777344 49.691406 41.09375 49.777344 41.605469 C 49.894531 42.273438 49.972656 43.046875 49.984375 43.675781 C 49.984375 44.230469 49.984375 44.90625 49.984375 45.328125 C 49.964844 46.195312 50.667969 46.921875 51.164062 47.203125 C 50.199219 47.636719 49.910156 49.183594 49.984375 49.777344 L 49.984375 96.84375 C 49.996094 98.105469 50.796875 99.332031 51.953125 99.84375 C 54.679688 101.113281 58.109375 103.492188 61.054688 106.050781 C 62.324219 107.363281 64.722656 107.304688 65.925781 105.929688 C 67.128906 104.554688 66.867188 102.167969 65.398438 101.085938 C 62.726562 98.761719 59.617188 96.871094 56.605469 95.1875 L 56.605469 52.054688 C 56.820312 51.941406 57.007812 51.984375 57.226562 51.847656 C 58.4375 51.078125 60.023438 49.441406 59.917969 47.191406 C 59.875 45.933594 59.328125 44.628906 58.570312 43.777344 C 57.878906 43 57.152344 42.605469 56.503906 42.328125 C 56.464844 41.714844 56.425781 41.210938 56.296875 40.46875 C 56.085938 39.273438 55.757812 37.871094 54.847656 36.535156 C 53.671875 34.734375 51.902344 34.058594 50.191406 33.949219 C 43.058594 33.949219 35.957031 33.949219 29.503906 33.949219 Z M 188.390625 33.949219 C 186.597656 34.285156 185.546875 34.730469 184.148438 36.535156 C 183.242188 37.871094 182.910156 39.273438 182.703125 40.46875 C 182.574219 41.210938 182.53125 41.714844 182.496094 42.328125 C 181.847656 42.605469 181.121094 43 180.425781 43.777344 C 179.667969 44.628906 179.121094 45.933594 179.082031 47.191406 C 178.976562 49.441406 180.558594 51.078125 181.769531 51.847656 C 181.988281 51.984375 182.175781 51.941406 182.390625 52.054688 L 182.390625 95.085938 C 179.410156 96.703125 176.324219 98.511719 173.597656 100.878906 C 172.273438 102.015625 172.097656 104.257812 173.238281 105.585938 C 174.375 106.910156 176.617188 107.085938 177.945312 105.945312 C 180.832031 103.4375 184.226562 101.15625 187.046875 99.84375 C 188.199219 99.332031 189.003906 98.105469 189.011719 96.84375 L 189.011719 49.777344 C 189.109375 48.425781 188.246094 47.566406 187.769531 47.191406 C 188.765625 46.515625 188.964844 46.042969 189.011719 45.328125 C 189.023438 44.773438 189.011719 44.183594 189.011719 43.675781 C 189.027344 43.046875 189.101562 42.273438 189.21875 41.605469 C 189.308594 41.09375 189.4375 40.777344 189.527344 40.570312 C 195.804688 40.570312 202.078125 40.570312 208.355469 40.570312 C 208.445312 40.777344 208.578125 41.09375 208.664062 41.605469 C 208.78125 42.273438 208.859375 43.046875 208.871094 43.675781 C 208.871094 44.230469 208.871094 44.90625 208.871094 45.328125 C 208.84375 46.207031 209.375 46.960938 210.09375 47.191406 C 209.25 47.726562 208.828125 48.65625 208.871094 49.777344 L 208.871094 96.84375 C 208.882812 98.105469 209.683594 99.332031 210.839844 99.84375 C 215.910156 102.203125 221.417969 106.777344 225.527344 111.53125 C 229.636719 116.289062 232.042969 121.671875 232.042969 123.015625 L 232.042969 212.699219 C 224.140625 212.699219 216.101562 212.699219 208.253906 212.699219 C 206.519531 212.859375 205.089844 214.585938 205.253906 216.320312 C 205.414062 218.050781 207.140625 219.480469 208.871094 219.320312 L 232.042969 219.320312 L 232.042969 229.25 C 219.722656 229.25 207.28125 229.25 195.011719 229.25 C 193.277344 229.410156 191.847656 231.136719 192.011719 232.871094 C 192.175781 234.601562 193.898438 236.03125 195.632812 235.871094 L 232.042969 235.871094 L 232.042969 238.972656 C 232.042969 239.324219 231.878906 239.847656 231.113281 240.628906 C 230.347656 241.40625 229.011719 242.320312 227.183594 243.109375 C 223.523438 244.691406 218.09375 245.800781 212.183594 245.800781 L 182.390625 245.800781 C 180.644531 245.773438 179.035156 247.359375 179.035156 249.109375 C 179.035156 250.859375 180.644531 252.445312 182.390625 252.421875 L 212.183594 252.421875 C 218.878906 252.421875 224.992188 251.175781 229.769531 249.109375 C 232.15625 248.078125 234.261719 246.917969 235.871094 245.28125 C 237.480469 243.648438 238.664062 241.414062 238.664062 238.972656 L 238.664062 123.015625 C 238.664062 117.746094 235.21875 112.535156 230.59375 107.1875 C 226.464844 102.410156 221.082031 98.117188 215.492188 95.085938 L 215.492188 52.054688 C 215.707031 51.941406 215.894531 51.984375 216.113281 51.847656 C 217.324219 51.078125 218.910156 49.441406 218.804688 47.191406 C 218.761719 45.933594 218.214844 44.628906 217.457031 43.777344 C 216.765625 43 216.039062 42.605469 215.390625 42.328125 C 215.351562 41.714844 215.3125 41.210938 215.183594 40.46875 C 214.972656 39.273438 214.644531 37.871094 213.734375 36.535156 C 213.324219 35.933594 212.289062 35.867188 211.5625 35.398438 C 211.5625 35.363281 211.5625 35.332031 211.5625 35.296875 C 210.988281 34.511719 210.050781 34.003906 209.078125 33.949219 C 209.046875 33.949219 209.011719 33.953125 208.976562 33.949219 C 208.941406 33.949219 208.90625 33.949219 208.871094 33.949219 C 201.617188 33.949219 194.660156 33.949219 188.390625 33.949219 Z M 129.324219 106.671875 C 126.664062 106.683594 125.15625 110.703125 127.152344 112.464844 C 129.847656 115.046875 132.171875 117.578125 133.773438 119.808594 C 135.375 122.035156 136.050781 124.011719 136.050781 124.460938 L 136.050781 176.285156 C 136.023438 178.035156 137.609375 179.644531 139.359375 179.644531 C 141.109375 179.644531 142.695312 178.035156 142.671875 176.285156 L 142.671875 124.460938 C 142.671875 121.332031 141.121094 118.722656 139.152344 115.980469 C 137.183594 113.238281 134.59375 110.371094 131.707031 107.601562 C 131.078125 106.992188 130.199219 106.648438 129.324219 106.671875 Z M 138.945312 189.425781 C 137.320312 189.628906 135.984375 191.199219 136.050781 192.835938 L 136.050781 196.148438 C 136.023438 197.894531 137.609375 199.503906 139.359375 199.503906 C 141.109375 199.503906 142.695312 197.894531 142.671875 196.148438 L 142.671875 192.835938 C 142.746094 190.921875 140.847656 189.183594 138.945312 189.425781 Z M 138.945312 189.425781 " fill-opacity="1" fill-rule="nonzero"/></g></g></g></g><g fill="#ffffff" fill-opacity="1"><g transform="translate(0.0000045, 215.968038)"><g><path d="M 54.890625 0 L 40.28125 0 L 16.71875 -41 L 16.375 -41 C 16.851562 -33.75 17.09375 -28.582031 17.09375 -25.5 L 17.09375 0 L 6.8125 0 L 6.8125 -54.1875 L 21.3125 -54.1875 L 44.84375 -13.609375 L 45.109375 -13.609375 C 44.734375 -20.648438 44.546875 -25.625 44.546875 -28.53125 L 44.546875 -54.1875 L 54.890625 -54.1875 Z M 54.890625 0 "/></g></g></g><g fill="#ffffff" fill-opacity="1"><g transform="translate(61.711852, 215.968038)"><g><path d="M 38.03125 0 L 6.8125 0 L 6.8125 -54.1875 L 38.03125 -54.1875 L 38.03125 -44.765625 L 18.3125 -44.765625 L 18.3125 -32.875 L 36.65625 -32.875 L 36.65625 -23.46875 L 18.3125 -23.46875 L 18.3125 -9.484375 L 38.03125 -9.484375 Z M 38.03125 0 "/></g></g></g><g fill="#ffffff" fill-opacity="1"><g transform="translate(104.224461, 215.968038)"><g><path d="M 27.390625 -30.421875 L 48.890625 -30.421875 L 48.890625 -2.328125 C 45.398438 -1.191406 42.117188 -0.398438 39.046875 0.046875 C 35.972656 0.503906 32.828125 0.734375 29.609375 0.734375 C 21.429688 0.734375 15.1875 -1.664062 10.875 -6.46875 C 6.5625 -11.269531 4.40625 -18.171875 4.40625 -27.171875 C 4.40625 -35.910156 6.90625 -42.726562 11.90625 -47.625 C 16.914062 -52.519531 23.859375 -54.96875 32.734375 -54.96875 C 38.285156 -54.96875 43.644531 -53.851562 48.8125 -51.625 L 45 -42.4375 C 41.039062 -44.414062 36.925781 -45.40625 32.65625 -45.40625 C 27.6875 -45.40625 23.707031 -43.734375 20.71875 -40.390625 C 17.726562 -37.054688 16.234375 -32.570312 16.234375 -26.9375 C 16.234375 -21.0625 17.4375 -16.570312 19.84375 -13.46875 C 22.257812 -10.375 25.765625 -8.828125 30.359375 -8.828125 C 32.753906 -8.828125 35.1875 -9.070312 37.65625 -9.5625 L 37.65625 -20.859375 L 27.390625 -20.859375 Z M 27.390625 -30.421875 "/></g></g></g><g fill="#ffffff" fill-opacity="1"><g transform="translate(159.190631, 215.968038)"><g><path d="M 56 -27.171875 C 56 -18.203125 53.773438 -11.304688 49.328125 -6.484375 C 44.878906 -1.671875 38.503906 0.734375 30.203125 0.734375 C 21.898438 0.734375 15.523438 -1.671875 11.078125 -6.484375 C 6.628906 -11.304688 4.40625 -18.222656 4.40625 -27.234375 C 4.40625 -36.253906 6.632812 -43.144531 11.09375 -47.90625 C 15.5625 -52.664062 21.957031 -55.046875 30.28125 -55.046875 C 38.601562 -55.046875 44.96875 -52.644531 49.375 -47.84375 C 53.789062 -43.050781 56 -36.160156 56 -27.171875 Z M 16.453125 -27.171875 C 16.453125 -21.117188 17.597656 -16.554688 19.890625 -13.484375 C 22.191406 -10.421875 25.628906 -8.890625 30.203125 -8.890625 C 39.367188 -8.890625 43.953125 -14.984375 43.953125 -27.171875 C 43.953125 -39.378906 39.394531 -45.484375 30.28125 -45.484375 C 25.707031 -45.484375 22.257812 -43.941406 19.9375 -40.859375 C 17.613281 -37.785156 16.453125 -33.222656 16.453125 -27.171875 Z M 16.453125 -27.171875 "/></g></g></g><g fill="#ffffff" fill-opacity="1"><g transform="translate(219.605222, 215.968038)"><g><path d="M 38.8125 -15.046875 C 38.8125 -10.148438 37.050781 -6.296875 33.53125 -3.484375 C 30.007812 -0.671875 25.109375 0.734375 18.828125 0.734375 C 13.046875 0.734375 7.929688 -0.347656 3.484375 -2.515625 L 3.484375 -13.1875 C 7.140625 -11.5625 10.234375 -10.414062 12.765625 -9.75 C 15.296875 -9.082031 17.613281 -8.75 19.71875 -8.75 C 22.238281 -8.75 24.171875 -9.226562 25.515625 -10.1875 C 26.859375 -11.15625 27.53125 -12.585938 27.53125 -14.484375 C 27.53125 -15.546875 27.234375 -16.488281 26.640625 -17.3125 C 26.054688 -18.144531 25.1875 -18.941406 24.03125 -19.703125 C 22.882812 -20.472656 20.546875 -21.703125 17.015625 -23.390625 C 13.703125 -24.941406 11.21875 -26.429688 9.5625 -27.859375 C 7.90625 -29.296875 6.582031 -30.96875 5.59375 -32.875 C 4.601562 -34.78125 4.109375 -37.003906 4.109375 -39.546875 C 4.109375 -44.335938 5.734375 -48.101562 8.984375 -50.84375 C 12.234375 -53.59375 16.722656 -54.96875 22.453125 -54.96875 C 25.273438 -54.96875 27.960938 -54.632812 30.515625 -53.96875 C 33.078125 -53.300781 35.753906 -52.359375 38.546875 -51.140625 L 34.84375 -42.21875 C 31.945312 -43.40625 29.550781 -44.234375 27.65625 -44.703125 C 25.769531 -45.171875 23.914062 -45.40625 22.09375 -45.40625 C 19.914062 -45.40625 18.242188 -44.894531 17.078125 -43.875 C 15.921875 -42.863281 15.34375 -41.546875 15.34375 -39.921875 C 15.34375 -38.898438 15.578125 -38.015625 16.046875 -37.265625 C 16.515625 -36.515625 17.257812 -35.785156 18.28125 -35.078125 C 19.3125 -34.378906 21.742188 -33.113281 25.578125 -31.28125 C 30.640625 -28.863281 34.109375 -26.4375 35.984375 -24 C 37.867188 -21.5625 38.8125 -18.578125 38.8125 -15.046875 Z M 38.8125 -15.046875 "/></g></g></g><g fill="#ffffff" fill-opacity="1"><g transform="translate(261.413601, 215.968038)"><g><path d="M 50.921875 -54.1875 L 50.921875 -19.125 C 50.921875 -15.125 50.023438 -11.613281 48.234375 -8.59375 C 46.441406 -5.582031 43.851562 -3.273438 40.46875 -1.671875 C 37.082031 -0.0664062 33.082031 0.734375 28.46875 0.734375 C 21.5 0.734375 16.085938 -1.046875 12.234375 -4.609375 C 8.378906 -8.179688 6.453125 -13.066406 6.453125 -19.265625 L 6.453125 -54.1875 L 17.90625 -54.1875 L 17.90625 -21.015625 C 17.90625 -16.835938 18.742188 -13.769531 20.421875 -11.8125 C 22.097656 -9.863281 24.878906 -8.890625 28.765625 -8.890625 C 32.515625 -8.890625 35.234375 -9.867188 36.921875 -11.828125 C 38.617188 -13.796875 39.46875 -16.882812 39.46875 -21.09375 L 39.46875 -54.1875 Z M 50.921875 -54.1875 "/></g></g></g><g fill="#ffffff" fill-opacity="1"><g transform="translate(318.78893, 215.968038)"><g><path d="M 51.78125 -27.609375 C 51.78125 -18.691406 49.238281 -11.859375 44.15625 -7.109375 C 39.082031 -2.367188 31.75 0 22.15625 0 L 6.8125 0 L 6.8125 -54.1875 L 23.828125 -54.1875 C 32.671875 -54.1875 39.539062 -51.847656 44.4375 -47.171875 C 49.332031 -42.503906 51.78125 -35.984375 51.78125 -27.609375 Z M 39.84375 -27.3125 C 39.84375 -38.945312 34.703125 -44.765625 24.421875 -44.765625 L 18.3125 -44.765625 L 18.3125 -9.484375 L 23.234375 -9.484375 C 34.304688 -9.484375 39.84375 -15.425781 39.84375 -27.3125 Z M 39.84375 -27.3125 "/></g></g></g></svg>