<svg xmlns="http://www.w3.org/2000/svg" xmlns:xlink="http://www.w3.org/1999/xlink" width="500" zoomAndPan="magnify" viewBox="0 0 375 374.999991" height="500" preserveAspectRatio="xMidYMid meet" version="1.0"><defs><g/><clipPath id="22de8e57ac"><path d="M 85 148 L 140.644531 148 L 140.644531 248.960938 L 85 248.960938 Z M 85 148 " clip-rule="nonzero"/></clipPath><clipPath id="b6b1d1f807"><path d="M 22.144531 148 L 79 148 L 79 248.960938 L 22.144531 248.960938 Z M 22.144531 148 " clip-rule="nonzero"/></clipPath></defs><g clip-path="url(#22de8e57ac)"><path fill="#ffffff" d="M 140.789062 239.300781 C 140.695312 238.929688 140.53125 238.59375 140.300781 238.289062 C 140.070312 237.984375 139.789062 237.734375 139.457031 237.542969 C 139.125 237.351562 138.773438 237.234375 138.394531 237.183594 C 138.015625 237.136719 137.640625 237.164062 137.273438 237.265625 L 130.421875 239.1875 L 121.136719 206.195312 C 121.984375 205.851562 122.8125 205.464844 123.617188 205.03125 C 124.425781 204.601562 125.207031 204.125 125.960938 203.613281 C 126.71875 203.097656 127.445312 202.542969 128.140625 201.953125 C 128.835938 201.359375 129.5 200.730469 130.128906 200.070312 C 130.761719 199.40625 131.351562 198.710938 131.910156 197.984375 C 132.464844 197.257812 132.980469 196.503906 133.453125 195.722656 C 133.929688 194.941406 134.363281 194.136719 134.75 193.3125 C 135.140625 192.484375 135.484375 191.636719 135.785156 190.773438 C 136.082031 189.910156 136.335938 189.03125 136.542969 188.140625 C 136.746094 187.25 136.90625 186.351562 137.015625 185.441406 C 137.125 184.535156 137.1875 183.625 137.199219 182.710938 C 137.210938 181.796875 137.175781 180.882812 137.089844 179.972656 C 137.003906 179.0625 136.871094 178.160156 136.691406 177.261719 C 136.507812 176.367188 136.28125 175.480469 136.003906 174.609375 C 135.730469 173.738281 135.410156 172.882812 135.042969 172.046875 C 134.675781 171.207031 134.265625 170.390625 133.8125 169.597656 L 123.246094 151.085938 C 122.929688 150.535156 122.535156 150.046875 122.058594 149.628906 C 121.578125 149.207031 121.046875 148.878906 120.457031 148.636719 C 119.871094 148.394531 119.257812 148.257812 118.625 148.21875 C 117.988281 148.183594 117.363281 148.25 116.753906 148.425781 L 89.3125 156.097656 C 88.695312 156.269531 88.125 156.539062 87.601562 156.902344 C 87.074219 157.269531 86.625 157.710938 86.246094 158.226562 C 85.871094 158.742188 85.585938 159.308594 85.398438 159.917969 C 85.214844 160.53125 85.132812 161.15625 85.15625 161.792969 L 85.765625 183.152344 C 85.792969 183.980469 85.855469 184.800781 85.960938 185.621094 C 86.0625 186.4375 86.207031 187.25 86.386719 188.054688 C 86.570312 188.859375 86.789062 189.652344 87.046875 190.4375 C 87.304688 191.222656 87.601562 191.992188 87.929688 192.746094 C 88.261719 193.503906 88.632812 194.238281 89.035156 194.960938 C 89.4375 195.679688 89.871094 196.378906 90.34375 197.058594 C 90.8125 197.734375 91.3125 198.390625 91.847656 199.019531 C 92.378906 199.648438 92.941406 200.253906 93.53125 200.828125 C 94.125 201.40625 94.742188 201.953125 95.382812 202.46875 C 96.027344 202.984375 96.695312 203.46875 97.382812 203.921875 C 98.074219 204.375 98.785156 204.792969 99.515625 205.179688 C 100.242188 205.5625 100.992188 205.910156 101.753906 206.222656 C 102.519531 206.535156 103.296875 206.8125 104.085938 207.050781 C 104.875 207.289062 105.675781 207.488281 106.484375 207.648438 C 107.292969 207.808594 108.109375 207.933594 108.929688 208.015625 C 109.75 208.097656 110.574219 208.140625 111.398438 208.144531 C 112.832031 208.140625 114.257812 208.023438 115.671875 207.789062 L 124.953125 240.851562 L 118.105469 242.773438 C 117.777344 242.871094 117.476562 243.019531 117.203125 243.222656 C 116.929688 243.429688 116.699219 243.671875 116.511719 243.960938 C 116.328125 244.246094 116.195312 244.558594 116.121094 244.890625 C 116.046875 245.222656 116.035156 245.558594 116.082031 245.898438 C 116.128906 246.234375 116.230469 246.554688 116.394531 246.855469 C 116.554688 247.15625 116.765625 247.421875 117.019531 247.648438 C 117.277344 247.871094 117.566406 248.046875 117.882812 248.167969 C 118.203125 248.289062 118.53125 248.355469 118.875 248.355469 C 119.136719 248.359375 119.390625 248.324219 119.644531 248.257812 L 129.226562 245.566406 L 138.824219 242.859375 C 139.191406 242.757812 139.527344 242.589844 139.828125 242.351562 C 140.125 242.113281 140.367188 241.828125 140.554688 241.492188 C 140.738281 241.160156 140.851562 240.800781 140.890625 240.421875 C 140.933594 240.039062 140.898438 239.667969 140.789062 239.300781 Z M 118.289062 153.863281 L 128.257812 171.347656 C 127.839844 172.015625 127.359375 172.640625 126.824219 173.214844 C 126.285156 173.792969 125.699219 174.316406 125.066406 174.785156 C 124.429688 175.25 123.757812 175.65625 123.046875 175.996094 C 122.335938 176.339844 121.601562 176.609375 120.839844 176.816406 C 120.078125 177.019531 119.304688 177.148438 118.519531 177.207031 C 117.730469 177.265625 116.945312 177.25 116.164062 177.164062 C 115.378906 177.074219 114.613281 176.914062 113.859375 176.679688 C 113.105469 176.449219 112.378906 176.148438 111.683594 175.777344 C 110.878906 175.355469 110.050781 174.992188 109.195312 174.695312 C 108.339844 174.394531 107.464844 174.15625 106.574219 173.988281 C 105.683594 173.816406 104.785156 173.710938 103.878906 173.675781 C 102.972656 173.636719 102.066406 173.664062 101.164062 173.761719 C 100.261719 173.855469 99.375 174.019531 98.496094 174.246094 C 97.617188 174.472656 96.761719 174.765625 95.925781 175.117188 C 95.089844 175.472656 94.285156 175.886719 93.511719 176.359375 C 92.738281 176.832031 92.003906 177.359375 91.304688 177.941406 L 90.835938 161.582031 Z M 99.621094 198.488281 C 97.578125 196.992188 95.886719 195.171875 94.539062 193.027344 C 93.195312 190.882812 92.292969 188.5625 91.832031 186.074219 C 91.996094 185.917969 92.132812 185.742188 92.246094 185.546875 C 92.65625 184.855469 93.128906 184.210938 93.660156 183.609375 C 94.195312 183.011719 94.78125 182.464844 95.417969 181.976562 C 96.054688 181.488281 96.730469 181.066406 97.449219 180.707031 C 98.167969 180.347656 98.910156 180.058594 99.683594 179.839844 C 100.457031 179.625 101.242188 179.480469 102.042969 179.414062 C 102.84375 179.347656 103.644531 179.355469 104.441406 179.441406 C 105.238281 179.523438 106.023438 179.683594 106.789062 179.917969 C 107.558594 180.152344 108.296875 180.457031 109.007812 180.832031 C 109.882812 181.296875 110.789062 181.683594 111.730469 182 C 112.667969 182.316406 113.625 182.554688 114.605469 182.714844 C 115.582031 182.875 116.566406 182.957031 117.554688 182.957031 C 118.546875 182.957031 119.53125 182.878906 120.507812 182.722656 C 121.488281 182.566406 122.445312 182.332031 123.386719 182.019531 C 124.324219 181.707031 125.234375 181.320312 126.113281 180.859375 C 126.988281 180.398438 127.824219 179.875 128.617188 179.277344 C 129.410156 178.683594 130.148438 178.03125 130.835938 177.316406 C 131.105469 178.3125 131.300781 179.324219 131.414062 180.351562 C 131.527344 181.375 131.5625 182.40625 131.515625 183.4375 C 131.472656 184.46875 131.347656 185.488281 131.140625 186.503906 C 130.9375 187.515625 130.65625 188.503906 130.296875 189.472656 C 129.9375 190.441406 129.507812 191.375 129.003906 192.277344 C 128.5 193.179688 127.929688 194.035156 127.292969 194.847656 C 126.65625 195.660156 125.960938 196.421875 125.207031 197.125 C 124.453125 197.832031 123.648438 198.472656 122.792969 199.050781 C 121.9375 199.632812 121.042969 200.140625 120.109375 200.582031 C 119.175781 201.023438 118.214844 201.390625 117.222656 201.679688 C 116.234375 201.972656 115.226562 202.183594 114.203125 202.320312 C 113.175781 202.453125 112.148438 202.507812 111.117188 202.484375 C 110.085938 202.460938 109.0625 202.355469 108.042969 202.171875 C 107.027344 201.984375 106.03125 201.722656 105.058594 201.386719 C 104.082031 201.046875 103.140625 200.632812 102.226562 200.148438 C 101.316406 199.664062 100.449219 199.109375 99.621094 198.488281 Z M 99.621094 198.488281 " fill-opacity="1" fill-rule="nonzero"/></g><g clip-path="url(#b6b1d1f807)"><path fill="#ffffff" d="M 74.019531 156.097656 L 46.582031 148.425781 C 45.96875 148.25 45.34375 148.183594 44.710938 148.21875 C 44.074219 148.257812 43.464844 148.394531 42.875 148.636719 C 42.285156 148.878906 41.753906 149.207031 41.277344 149.628906 C 40.796875 150.046875 40.402344 150.535156 40.085938 151.085938 L 29.519531 169.597656 C 29.066406 170.390625 28.65625 171.207031 28.289062 172.046875 C 27.925781 172.882812 27.601562 173.738281 27.328125 174.609375 C 27.050781 175.480469 26.824219 176.367188 26.640625 177.261719 C 26.460938 178.160156 26.328125 179.0625 26.242188 179.972656 C 26.160156 180.882812 26.121094 181.796875 26.132812 182.710938 C 26.148438 183.625 26.207031 184.535156 26.316406 185.441406 C 26.425781 186.351562 26.585938 187.25 26.789062 188.140625 C 26.996094 189.03125 27.25 189.910156 27.546875 190.773438 C 27.847656 191.636719 28.191406 192.484375 28.582031 193.3125 C 28.96875 194.136719 29.402344 194.941406 29.878906 195.722656 C 30.351562 196.503906 30.867188 197.257812 31.425781 197.984375 C 31.980469 198.710938 32.574219 199.40625 33.203125 200.070312 C 33.832031 200.730469 34.496094 201.359375 35.191406 201.953125 C 35.890625 202.542969 36.613281 203.097656 37.371094 203.613281 C 38.125 204.125 38.90625 204.601562 39.714844 205.03125 C 40.519531 205.464844 41.347656 205.851562 42.195312 206.195312 L 32.910156 239.242188 L 26.132812 237.265625 C 25.769531 237.160156 25.398438 237.132812 25.023438 237.175781 C 24.648438 237.222656 24.296875 237.335938 23.96875 237.519531 C 23.636719 237.703125 23.355469 237.945312 23.121094 238.242188 C 22.886719 238.535156 22.71875 238.867188 22.617188 239.230469 C 22.515625 239.59375 22.484375 239.960938 22.527344 240.335938 C 22.574219 240.710938 22.6875 241.066406 22.871094 241.394531 C 23.054688 241.722656 23.292969 242.007812 23.589844 242.242188 C 23.886719 242.476562 24.21875 242.644531 24.582031 242.746094 L 34.175781 245.453125 L 43.761719 248.144531 C 44.011719 248.210938 44.269531 248.246094 44.53125 248.242188 C 44.871094 248.238281 45.203125 248.175781 45.519531 248.054688 C 45.839844 247.933594 46.128906 247.757812 46.382812 247.53125 C 46.640625 247.308594 46.847656 247.042969 47.011719 246.742188 C 47.171875 246.441406 47.277344 246.121094 47.324219 245.785156 C 47.371094 245.445312 47.355469 245.109375 47.28125 244.777344 C 47.207031 244.441406 47.078125 244.132812 46.890625 243.847656 C 46.707031 243.558594 46.476562 243.3125 46.203125 243.109375 C 45.925781 242.90625 45.625 242.757812 45.296875 242.660156 L 38.449219 240.738281 L 47.734375 207.675781 C 49.148438 207.910156 50.570312 208.027344 52.003906 208.03125 C 52.828125 208.023438 53.644531 207.980469 54.464844 207.894531 C 55.28125 207.8125 56.089844 207.6875 56.898438 207.527344 C 57.703125 207.363281 58.496094 207.164062 59.285156 206.925781 C 60.070312 206.6875 60.84375 206.414062 61.601562 206.101562 C 62.363281 205.789062 63.105469 205.441406 63.832031 205.058594 C 64.558594 204.675781 65.265625 204.257812 65.953125 203.808594 C 66.640625 203.359375 67.304688 202.875 67.945312 202.363281 C 68.585938 201.847656 69.199219 201.304688 69.789062 200.730469 C 70.375 200.160156 70.9375 199.558594 71.46875 198.933594 C 72 198.304688 72.5 197.65625 72.96875 196.980469 C 73.4375 196.308594 73.871094 195.613281 74.273438 194.894531 C 74.675781 194.179688 75.046875 193.445312 75.378906 192.695312 C 75.710938 191.945312 76.003906 191.179688 76.265625 190.398438 C 76.523438 189.621094 76.746094 188.832031 76.929688 188.03125 C 77.113281 187.230469 77.257812 186.421875 77.363281 185.605469 C 77.46875 184.792969 77.539062 183.976562 77.566406 183.152344 L 78.179688 161.792969 C 78.203125 161.15625 78.121094 160.53125 77.933594 159.917969 C 77.746094 159.308594 77.464844 158.742188 77.085938 158.226562 C 76.710938 157.710938 76.257812 157.269531 75.730469 156.902344 C 75.207031 156.539062 74.636719 156.269531 74.019531 156.097656 Z M 45.042969 153.90625 L 72.480469 161.625 L 72.011719 177.984375 C 71.316406 177.402344 70.582031 176.875 69.808594 176.402344 C 69.035156 175.929688 68.230469 175.515625 67.394531 175.160156 C 66.558594 174.808594 65.703125 174.515625 64.824219 174.289062 C 63.945312 174.0625 63.054688 173.898438 62.152344 173.804688 C 61.25 173.707031 60.347656 173.679688 59.441406 173.714844 C 58.535156 173.753906 57.636719 173.859375 56.742188 174.03125 C 55.851562 174.199219 54.980469 174.4375 54.125 174.738281 C 53.265625 175.035156 52.4375 175.398438 51.636719 175.820312 C 50.9375 176.1875 50.214844 176.488281 49.460938 176.722656 C 48.707031 176.957031 47.9375 177.117188 47.15625 177.203125 C 46.371094 177.292969 45.585938 177.308594 44.800781 177.25 C 44.015625 177.191406 43.242188 177.0625 42.480469 176.859375 C 41.71875 176.652344 40.980469 176.382812 40.269531 176.039062 C 39.558594 175.699219 38.886719 175.292969 38.253906 174.828125 C 37.617188 174.359375 37.03125 173.835938 36.496094 173.257812 C 35.960938 172.679688 35.480469 172.058594 35.058594 171.390625 Z M 63.710938 198.488281 C 62.886719 199.109375 62.015625 199.664062 61.105469 200.148438 C 60.195312 200.632812 59.25 201.046875 58.273438 201.386719 C 57.300781 201.722656 56.304688 201.984375 55.289062 202.171875 C 54.273438 202.355469 53.246094 202.460938 52.214844 202.484375 C 51.183594 202.507812 50.15625 202.453125 49.132812 202.320312 C 48.109375 202.183594 47.101562 201.972656 46.109375 201.679688 C 45.117188 201.390625 44.15625 201.023438 43.222656 200.582031 C 42.289062 200.140625 41.394531 199.632812 40.539062 199.050781 C 39.6875 198.472656 38.882812 197.832031 38.125 197.125 C 37.371094 196.421875 36.675781 195.660156 36.039062 194.847656 C 35.402344 194.035156 34.832031 193.179688 34.328125 192.277344 C 33.824219 191.375 33.394531 190.441406 33.035156 189.472656 C 32.675781 188.503906 32.394531 187.515625 32.191406 186.503906 C 31.988281 185.488281 31.863281 184.46875 31.816406 183.4375 C 31.769531 182.40625 31.804688 181.375 31.917969 180.351562 C 32.03125 179.324219 32.226562 178.3125 32.496094 177.316406 C 33.183594 178.03125 33.921875 178.683594 34.714844 179.277344 C 35.507812 179.875 36.34375 180.398438 37.222656 180.859375 C 38.097656 181.320312 39.007812 181.707031 39.945312 182.019531 C 40.886719 182.332031 41.847656 182.566406 42.824219 182.722656 C 43.800781 182.878906 44.785156 182.957031 45.777344 182.957031 C 46.765625 182.957031 47.75 182.875 48.730469 182.714844 C 49.707031 182.554688 50.664062 182.316406 51.605469 182 C 52.542969 181.683594 53.449219 181.296875 54.328125 180.832031 C 55.035156 180.457031 55.773438 180.152344 56.542969 179.917969 C 57.3125 179.683594 58.09375 179.523438 58.890625 179.441406 C 59.691406 179.355469 60.488281 179.347656 61.289062 179.414062 C 62.089844 179.480469 62.875 179.625 63.648438 179.839844 C 64.421875 180.058594 65.167969 180.347656 65.882812 180.707031 C 66.601562 181.066406 67.28125 181.488281 67.917969 181.976562 C 68.554688 182.464844 69.136719 183.011719 69.671875 183.609375 C 70.203125 184.210938 70.675781 184.855469 71.085938 185.546875 C 71.199219 185.742188 71.339844 185.917969 71.5 186.074219 C 71.039062 188.5625 70.140625 190.882812 68.792969 193.027344 C 67.449219 195.171875 65.753906 196.992188 63.710938 198.488281 Z M 63.710938 198.488281 " fill-opacity="1" fill-rule="nonzero"/></g><path fill="#ffffff" d="M 81.667969 126.550781 C 81.289062 126.550781 80.925781 126.625 80.578125 126.769531 C 80.226562 126.914062 79.917969 127.117188 79.652344 127.386719 C 79.386719 127.652344 79.179688 127.960938 79.035156 128.308594 C 78.890625 128.660156 78.820312 129.023438 78.820312 129.398438 L 78.820312 137.945312 C 78.820312 138.320312 78.890625 138.683594 79.035156 139.035156 C 79.179688 139.382812 79.386719 139.691406 79.652344 139.957031 C 79.917969 140.222656 80.226562 140.429688 80.578125 140.574219 C 80.925781 140.71875 81.289062 140.792969 81.667969 140.792969 C 82.042969 140.792969 82.40625 140.71875 82.757812 140.574219 C 83.105469 140.429688 83.414062 140.222656 83.679688 139.957031 C 83.949219 139.691406 84.152344 139.382812 84.296875 139.035156 C 84.441406 138.683594 84.515625 138.320312 84.515625 137.945312 L 84.515625 129.398438 C 84.515625 129.023438 84.441406 128.660156 84.296875 128.308594 C 84.152344 127.960938 83.949219 127.652344 83.679688 127.386719 C 83.414062 127.117188 83.105469 126.914062 82.757812 126.769531 C 82.40625 126.625 82.042969 126.550781 81.667969 126.550781 Z M 81.667969 126.550781 " fill-opacity="1" fill-rule="nonzero"/><path fill="#ffffff" d="M 95.734375 145.234375 C 96.519531 145.230469 97.191406 144.949219 97.742188 144.394531 L 103.792969 138.355469 C 104.0625 138.089844 104.265625 137.78125 104.410156 137.433594 C 104.554688 137.082031 104.628906 136.71875 104.628906 136.34375 C 104.628906 135.964844 104.554688 135.601562 104.410156 135.253906 C 104.265625 134.902344 104.058594 134.59375 103.792969 134.328125 C 103.527344 134.0625 103.21875 133.855469 102.867188 133.710938 C 102.519531 133.566406 102.15625 133.492188 101.777344 133.492188 C 101.402344 133.492188 101.039062 133.566406 100.6875 133.710938 C 100.339844 133.855469 100.03125 134.058594 99.765625 134.328125 L 93.714844 140.433594 C 93.300781 140.84375 93.039062 141.332031 92.925781 141.898438 C 92.8125 142.464844 92.867188 143.015625 93.089844 143.550781 C 93.308594 144.082031 93.664062 144.511719 94.144531 144.832031 C 94.625 145.152344 95.15625 145.308594 95.734375 145.304688 Z M 95.734375 145.234375 " fill-opacity="1" fill-rule="nonzero"/><path fill="#ffffff" d="M 65.589844 144.394531 C 66.144531 144.949219 66.8125 145.230469 67.597656 145.234375 C 68.160156 145.222656 68.675781 145.0625 69.140625 144.746094 C 69.609375 144.429688 69.949219 144.011719 70.167969 143.492188 C 70.386719 142.972656 70.449219 142.4375 70.347656 141.882812 C 70.25 141.328125 70.003906 140.847656 69.621094 140.433594 L 63.566406 134.398438 C 63.300781 134.132812 62.992188 133.925781 62.644531 133.78125 C 62.292969 133.636719 61.929688 133.566406 61.554688 133.566406 C 61.175781 133.566406 60.8125 133.636719 60.464844 133.78125 C 60.113281 133.925781 59.808594 134.132812 59.539062 134.398438 C 59.273438 134.667969 59.066406 134.976562 58.921875 135.324219 C 58.777344 135.671875 58.707031 136.035156 58.707031 136.414062 C 58.707031 136.789062 58.777344 137.15625 58.921875 137.503906 C 59.066406 137.851562 59.269531 138.160156 59.539062 138.425781 Z M 65.589844 144.394531 " fill-opacity="1" fill-rule="nonzero"/><g fill="#ffffff" fill-opacity="1"><g transform="translate(164.93491, 202.674243)"><g><path d="M 29.265625 0 L 21.484375 0 L 8.90625 -21.859375 L 8.734375 -21.859375 C 8.984375 -17.992188 9.109375 -15.238281 9.109375 -13.59375 L 9.109375 0 L 3.640625 0 L 3.640625 -28.890625 L 11.359375 -28.890625 L 23.90625 -7.25 L 24.046875 -7.25 C 23.847656 -11.007812 23.75 -13.664062 23.75 -15.21875 L 23.75 -28.890625 L 29.265625 -28.890625 Z M 29.265625 0 "/></g></g></g><g fill="#ffffff" fill-opacity="1"><g transform="translate(197.829021, 202.674243)"><g><path d="M 20.28125 0 L 3.640625 0 L 3.640625 -28.890625 L 20.28125 -28.890625 L 20.28125 -23.875 L 9.765625 -23.875 L 9.765625 -17.53125 L 19.546875 -17.53125 L 19.546875 -12.515625 L 9.765625 -12.515625 L 9.765625 -5.0625 L 20.28125 -5.0625 Z M 20.28125 0 "/></g></g></g><g fill="#ffffff" fill-opacity="1"><g transform="translate(220.48941, 202.674243)"><g><path d="M 14.609375 -16.21875 L 26.0625 -16.21875 L 26.0625 -1.25 C 24.207031 -0.632812 22.457031 -0.207031 20.8125 0.03125 C 19.175781 0.269531 17.5 0.390625 15.78125 0.390625 C 11.425781 0.390625 8.097656 -0.890625 5.796875 -3.453125 C 3.492188 -6.015625 2.34375 -9.691406 2.34375 -14.484375 C 2.34375 -19.148438 3.675781 -22.785156 6.34375 -25.390625 C 9.019531 -27.992188 12.722656 -29.296875 17.453125 -29.296875 C 20.410156 -29.296875 23.269531 -28.707031 26.03125 -27.53125 L 23.984375 -22.625 C 21.878906 -23.675781 19.6875 -24.203125 17.40625 -24.203125 C 14.757812 -24.203125 12.640625 -23.3125 11.046875 -21.53125 C 9.453125 -19.757812 8.65625 -17.367188 8.65625 -14.359375 C 8.65625 -11.222656 9.296875 -8.828125 10.578125 -7.171875 C 11.867188 -5.523438 13.738281 -4.703125 16.1875 -4.703125 C 17.457031 -4.703125 18.753906 -4.832031 20.078125 -5.09375 L 20.078125 -11.125 L 14.609375 -11.125 Z M 14.609375 -16.21875 "/></g></g></g><g fill="#ffffff" fill-opacity="1"><g transform="translate(249.787889, 202.674243)"><g><path d="M 29.859375 -14.484375 C 29.859375 -9.703125 28.671875 -6.023438 26.296875 -3.453125 C 23.929688 -0.890625 20.535156 0.390625 16.109375 0.390625 C 11.679688 0.390625 8.28125 -0.890625 5.90625 -3.453125 C 3.53125 -6.023438 2.34375 -9.71875 2.34375 -14.53125 C 2.34375 -19.332031 3.53125 -23 5.90625 -25.53125 C 8.289062 -28.070312 11.703125 -29.34375 16.140625 -29.34375 C 20.578125 -29.34375 23.972656 -28.0625 26.328125 -25.5 C 28.679688 -22.945312 29.859375 -19.273438 29.859375 -14.484375 Z M 8.78125 -14.484375 C 8.78125 -11.253906 9.390625 -8.820312 10.609375 -7.1875 C 11.835938 -5.5625 13.671875 -4.75 16.109375 -4.75 C 20.992188 -4.75 23.4375 -7.992188 23.4375 -14.484375 C 23.4375 -20.992188 21.003906 -24.25 16.140625 -24.25 C 13.703125 -24.25 11.863281 -23.425781 10.625 -21.78125 C 9.394531 -20.144531 8.78125 -17.710938 8.78125 -14.484375 Z M 8.78125 -14.484375 "/></g></g></g><g fill="#ffffff" fill-opacity="1"><g transform="translate(281.990526, 202.674243)"><g><path d="M 20.6875 -8.015625 C 20.6875 -5.410156 19.75 -3.359375 17.875 -1.859375 C 16 -0.359375 13.382812 0.390625 10.03125 0.390625 C 6.957031 0.390625 4.234375 -0.1875 1.859375 -1.34375 L 1.859375 -7.03125 C 3.804688 -6.164062 5.453125 -5.550781 6.796875 -5.1875 C 8.148438 -4.832031 9.390625 -4.65625 10.515625 -4.65625 C 11.859375 -4.65625 12.890625 -4.910156 13.609375 -5.421875 C 14.328125 -5.941406 14.6875 -6.707031 14.6875 -7.71875 C 14.6875 -8.289062 14.523438 -8.796875 14.203125 -9.234375 C 13.890625 -9.679688 13.425781 -10.109375 12.8125 -10.515625 C 12.195312 -10.921875 10.945312 -11.570312 9.0625 -12.46875 C 7.300781 -13.300781 5.976562 -14.097656 5.09375 -14.859375 C 4.21875 -15.617188 3.515625 -16.503906 2.984375 -17.515625 C 2.453125 -18.535156 2.1875 -19.722656 2.1875 -21.078125 C 2.1875 -23.640625 3.050781 -25.648438 4.78125 -27.109375 C 6.519531 -28.566406 8.914062 -29.296875 11.96875 -29.296875 C 13.476562 -29.296875 14.910156 -29.117188 16.265625 -28.765625 C 17.628906 -28.410156 19.054688 -27.910156 20.546875 -27.265625 L 18.578125 -22.5 C 17.035156 -23.132812 15.757812 -23.578125 14.75 -23.828125 C 13.738281 -24.078125 12.75 -24.203125 11.78125 -24.203125 C 10.613281 -24.203125 9.722656 -23.929688 9.109375 -23.390625 C 8.492188 -22.847656 8.1875 -22.144531 8.1875 -21.28125 C 8.1875 -20.738281 8.3125 -20.265625 8.5625 -19.859375 C 8.8125 -19.460938 9.207031 -19.078125 9.75 -18.703125 C 10.300781 -18.328125 11.597656 -17.648438 13.640625 -16.671875 C 16.335938 -15.378906 18.1875 -14.082031 19.1875 -12.78125 C 20.1875 -11.488281 20.6875 -9.898438 20.6875 -8.015625 Z M 20.6875 -8.015625 "/></g></g></g><g fill="#ffffff" fill-opacity="1"><g transform="translate(304.275541, 202.674243)"><g><path d="M 27.15625 -28.890625 L 27.15625 -10.203125 C 27.15625 -8.066406 26.675781 -6.191406 25.71875 -4.578125 C 24.757812 -2.972656 23.378906 -1.742188 21.578125 -0.890625 C 19.773438 -0.0351562 17.640625 0.390625 15.171875 0.390625 C 11.460938 0.390625 8.578125 -0.554688 6.515625 -2.453125 C 4.460938 -4.359375 3.4375 -6.96875 3.4375 -10.28125 L 3.4375 -28.890625 L 9.546875 -28.890625 L 9.546875 -11.203125 C 9.546875 -8.972656 9.992188 -7.335938 10.890625 -6.296875 C 11.785156 -5.265625 13.265625 -4.75 15.328125 -4.75 C 17.335938 -4.75 18.789062 -5.269531 19.6875 -6.3125 C 20.59375 -7.363281 21.046875 -9.007812 21.046875 -11.25 L 21.046875 -28.890625 Z M 27.15625 -28.890625 "/></g></g></g><g fill="#ffffff" fill-opacity="1"><g transform="translate(334.858168, 202.674243)"><g><path d="M 27.609375 -14.71875 C 27.609375 -9.96875 26.253906 -6.328125 23.546875 -3.796875 C 20.835938 -1.265625 16.925781 0 11.8125 0 L 3.640625 0 L 3.640625 -28.890625 L 12.703125 -28.890625 C 17.421875 -28.890625 21.082031 -27.644531 23.6875 -25.15625 C 26.300781 -22.664062 27.609375 -19.1875 27.609375 -14.71875 Z M 21.234375 -14.5625 C 21.234375 -20.769531 18.492188 -23.875 13.015625 -23.875 L 9.765625 -23.875 L 9.765625 -5.0625 L 12.390625 -5.0625 C 18.285156 -5.0625 21.234375 -8.226562 21.234375 -14.5625 Z M 21.234375 -14.5625 "/></g></g></g></svg>