<svg xmlns="http://www.w3.org/2000/svg" xmlns:xlink="http://www.w3.org/1999/xlink" width="500" zoomAndPan="magnify" viewBox="0 0 375 374.999991" height="500" preserveAspectRatio="xMidYMid meet" version="1.0"><defs><filter x="0%" y="0%" width="100%" height="100%" id="a6e018ad52"><feColorMatrix values="0 0 0 0 1 0 0 0 0 1 0 0 0 0 1 0 0 0 1 0" color-interpolation-filters="sRGB"/></filter><g/><mask id="e923b3fdcb"><g filter="url(#a6e018ad52)"><rect x="-37.5" width="450" fill="#000000" y="-37.499999" height="449.999989" fill-opacity="0.48"/></g></mask><clipPath id="97c3939559"><path d="M 0.6875 2.5 L 126.320312 2.5 L 126.320312 152.5 L 0.6875 152.5 Z M 0.6875 2.5 " clip-rule="nonzero"/></clipPath><clipPath id="4c416c073a"><rect x="0" width="127" y="0" height="153"/></clipPath></defs><rect x="-37.5" width="450" fill="#ffffff" y="-37.499999" height="449.999989" fill-opacity="1"/><rect x="-37.5" width="450" fill="#d9230f" y="-37.499999" height="449.999989" fill-opacity="1"/><g mask="url(#e923b3fdcb)"><g transform="matrix(1, 0, 0, 1, 124, 110)"><g clip-path="url(#4c416c073a)"><g clip-path="url(#97c3939559)"><path fill="#ffffff" d="M 57.941406 2.5 C 56.894531 2.785156 55.957031 3.578125 55.597656 4.246094 C 55.179688 5.042969 55.042969 5.835938 54.941406 6.589844 C 54.917969 7.140625 54.816406 7.859375 54.777344 8.277344 C 54.027344 8.667969 53.089844 9.796875 53.035156 11.113281 C 53.035156 11.128906 53.035156 11.148438 53.035156 11.167969 C 53.015625 12.257812 53.609375 13.207031 54.234375 13.726562 C 54.414062 13.875 54.597656 13.890625 54.777344 14 L 54.777344 45.234375 C 51.761719 47.292969 48.921875 50.265625 46.710938 53.464844 C 44.300781 56.953125 42.570312 60.472656 42.570312 63.546875 L 42.570312 143.777344 C 42.570312 146.546875 44.488281 148.761719 47.039062 150.210938 C 49.589844 151.660156 52.929688 152.5 56.523438 152.5 C 61.175781 152.5 65.824219 152.5 70.476562 152.5 C 74.070312 152.5 77.410156 151.660156 79.960938 150.210938 C 82.511719 148.761719 84.429688 146.546875 84.429688 143.777344 L 84.429688 63.546875 C 84.429688 60.472656 82.699219 56.953125 80.289062 53.464844 C 78.078125 50.265625 75.238281 47.292969 72.222656 45.234375 L 72.222656 14 C 72.402344 13.890625 72.585938 13.875 72.765625 13.726562 C 73.390625 13.207031 73.984375 12.257812 73.964844 11.167969 C 73.964844 11.148438 73.964844 11.128906 73.964844 11.113281 C 73.910156 9.796875 72.972656 8.667969 72.222656 8.277344 C 72.167969 7.921875 72.105469 7.058594 72.058594 6.589844 C 71.957031 5.835938 71.820312 5.042969 71.402344 4.246094 C 70.769531 3.136719 70.042969 2.5625 68.839844 2.5 C 65.113281 2.5 61.246094 2.5 57.941406 2.5 Z M 58.648438 5.988281 C 61.882812 5.988281 65.117188 5.988281 68.351562 5.988281 C 68.441406 6.199219 68.558594 6.59375 68.625 7.078125 C 68.695312 7.617188 68.726562 8.203125 68.734375 8.660156 C 68.734375 9.019531 68.734375 9.375 68.734375 9.695312 C 68.691406 10.570312 69.480469 10.988281 70.148438 11.222656 C 69.351562 11.375 68.71875 12.152344 68.734375 12.964844 L 68.734375 46.105469 C 68.734375 46.691406 69.054688 47.265625 69.550781 47.578125 C 72.230469 49.214844 75.210938 52.3125 77.398438 55.480469 C 79.589844 58.648438 80.941406 62.050781 80.941406 63.546875 L 80.941406 143.777344 C 80.941406 144.871094 80.109375 146.082031 78.214844 147.160156 C 76.324219 148.234375 73.527344 149.011719 70.476562 149.011719 C 65.824219 149.011719 61.175781 149.011719 56.523438 149.011719 C 53.472656 149.011719 50.675781 148.234375 48.785156 147.160156 C 46.890625 146.082031 46.058594 144.871094 46.058594 143.777344 L 46.058594 63.546875 C 46.058594 62.050781 47.410156 58.648438 49.601562 55.480469 C 51.789062 52.3125 54.769531 49.214844 57.449219 47.578125 C 57.945312 47.265625 58.265625 46.691406 58.265625 46.105469 L 58.265625 12.964844 C 58.28125 12.152344 57.648438 11.375 56.851562 11.222656 C 57.769531 11 58.234375 10.574219 58.265625 9.695312 C 58.269531 9.34375 58.265625 8.957031 58.265625 8.660156 C 58.273438 8.203125 58.304688 7.617188 58.375 7.078125 C 58.441406 6.59375 58.558594 6.199219 58.648438 5.988281 Z M 16.078125 18.199219 C 15.191406 18.292969 14.449219 18.675781 13.84375 19.558594 C 13.367188 20.261719 13.191406 21 13.082031 21.632812 C 13.015625 22.023438 12.992188 22.289062 12.972656 22.613281 C 12.632812 22.757812 12.25 22.964844 11.882812 23.375 C 11.484375 23.824219 11.195312 24.511719 11.175781 25.175781 C 11.117188 26.359375 11.953125 27.222656 12.589844 27.628906 C 12.707031 27.699219 12.804688 27.675781 12.917969 27.734375 L 12.917969 50.410156 C 9.972656 52.007812 7.136719 54.269531 4.960938 56.789062 C 2.523438 59.605469 0.710938 62.351562 0.710938 65.128906 L 0.710938 126.226562 C 0.710938 127.511719 1.332031 128.691406 2.179688 129.554688 C 3.027344 130.414062 4.140625 131.027344 5.398438 131.570312 C 7.914062 132.65625 11.132812 133.3125 14.664062 133.3125 L 30.359375 133.3125 C 31.28125 133.328125 32.128906 132.492188 32.128906 131.570312 C 32.128906 130.648438 31.28125 129.8125 30.359375 129.824219 L 14.664062 129.824219 C 11.550781 129.824219 8.6875 129.242188 6.757812 128.410156 C 5.796875 127.992188 5.09375 127.511719 4.6875 127.101562 C 4.285156 126.691406 4.199219 126.414062 4.199219 126.226562 L 4.199219 65.128906 C 4.199219 64.421875 5.464844 61.582031 7.632812 59.078125 C 9.796875 56.570312 12.699219 54.160156 15.371094 52.917969 C 15.980469 52.648438 16.402344 52.003906 16.40625 51.335938 L 16.40625 26.535156 C 16.429688 25.933594 16.164062 25.328125 15.753906 25.175781 C 16.238281 25.03125 16.402344 24.636719 16.40625 24.191406 C 16.414062 23.902344 16.40625 23.589844 16.40625 23.320312 C 16.414062 22.992188 16.453125 22.582031 16.515625 22.230469 C 16.5625 21.960938 16.632812 21.792969 16.679688 21.6875 C 19.984375 21.6875 23.292969 21.6875 26.597656 21.6875 C 26.648438 21.792969 26.714844 21.960938 26.761719 22.230469 C 26.824219 22.582031 26.863281 22.992188 26.871094 23.320312 C 26.871094 23.613281 26.871094 23.96875 26.871094 24.191406 C 26.859375 24.652344 27.230469 25.03125 27.492188 25.179688 C 26.984375 25.410156 26.832031 26.226562 26.871094 26.535156 L 26.871094 51.335938 C 26.878906 52.003906 27.300781 52.648438 27.90625 52.917969 C 29.347656 53.585938 31.152344 54.839844 32.703125 56.1875 C 33.371094 56.878906 34.636719 56.847656 35.273438 56.125 C 35.90625 55.402344 35.769531 54.140625 34.992188 53.570312 C 33.585938 52.347656 31.945312 51.351562 30.359375 50.464844 L 30.359375 27.734375 C 30.472656 27.675781 30.574219 27.699219 30.6875 27.628906 C 31.328125 27.222656 32.160156 26.359375 32.105469 25.175781 C 32.082031 24.511719 31.796875 23.824219 31.394531 23.375 C 31.03125 22.964844 30.648438 22.757812 30.304688 22.613281 C 30.285156 22.289062 30.265625 22.023438 30.195312 21.632812 C 30.085938 21 29.914062 20.261719 29.433594 19.558594 C 28.8125 18.609375 27.882812 18.253906 26.980469 18.199219 C 23.222656 18.199219 19.480469 18.199219 16.078125 18.199219 Z M 99.800781 18.199219 C 98.855469 18.375 98.300781 18.609375 97.566406 19.558594 C 97.085938 20.261719 96.914062 21 96.804688 21.632812 C 96.734375 22.023438 96.714844 22.289062 96.695312 22.613281 C 96.351562 22.757812 95.96875 22.964844 95.605469 23.375 C 95.203125 23.824219 94.917969 24.511719 94.894531 25.175781 C 94.839844 26.359375 95.671875 27.222656 96.3125 27.628906 C 96.425781 27.699219 96.527344 27.675781 96.640625 27.734375 L 96.640625 50.410156 C 95.070312 51.261719 93.441406 52.214844 92.007812 53.464844 C 91.308594 54.0625 91.214844 55.242188 91.816406 55.941406 C 92.414062 56.640625 93.597656 56.734375 94.296875 56.132812 C 95.816406 54.8125 97.605469 53.609375 99.09375 52.917969 C 99.699219 52.648438 100.121094 52.003906 100.128906 51.335938 L 100.128906 26.535156 C 100.179688 25.824219 99.722656 25.371094 99.472656 25.175781 C 99.996094 24.816406 100.105469 24.570312 100.128906 24.191406 C 100.132812 23.902344 100.128906 23.589844 100.128906 23.320312 C 100.136719 22.992188 100.175781 22.582031 100.238281 22.230469 C 100.285156 21.960938 100.351562 21.792969 100.402344 21.6875 C 103.707031 21.6875 107.015625 21.6875 110.320312 21.6875 C 110.367188 21.792969 110.4375 21.960938 110.484375 22.230469 C 110.546875 22.582031 110.585938 22.992188 110.59375 23.320312 C 110.59375 23.613281 110.59375 23.96875 110.59375 24.191406 C 110.578125 24.65625 110.859375 25.054688 111.238281 25.171875 C 110.789062 25.457031 110.570312 25.945312 110.59375 26.535156 L 110.59375 51.335938 C 110.597656 52.003906 111.019531 52.648438 111.628906 52.917969 C 114.300781 54.160156 117.203125 56.570312 119.367188 59.078125 C 121.535156 61.582031 122.800781 64.421875 122.800781 65.128906 L 122.800781 112.382812 C 118.636719 112.382812 114.402344 112.382812 110.265625 112.382812 C 109.351562 112.46875 108.601562 113.378906 108.683594 114.292969 C 108.769531 115.203125 109.679688 115.957031 110.59375 115.871094 L 122.800781 115.871094 L 122.800781 121.105469 C 116.3125 121.105469 109.753906 121.105469 103.289062 121.105469 C 102.375 121.191406 101.621094 122.097656 101.707031 123.011719 C 101.792969 123.925781 102.703125 124.679688 103.617188 124.59375 L 122.800781 124.59375 L 122.800781 126.226562 C 122.800781 126.414062 122.714844 126.691406 122.3125 127.101562 C 121.90625 127.511719 121.203125 127.992188 120.242188 128.410156 C 118.3125 129.242188 115.449219 129.824219 112.335938 129.824219 L 96.640625 129.824219 C 95.71875 129.8125 94.871094 130.648438 94.871094 131.570312 C 94.871094 132.492188 95.71875 133.328125 96.640625 133.3125 L 112.335938 133.3125 C 115.867188 133.3125 119.085938 132.65625 121.601562 131.570312 C 122.859375 131.027344 123.972656 130.414062 124.820312 129.554688 C 125.667969 128.691406 126.289062 127.511719 126.289062 126.226562 L 126.289062 65.128906 C 126.289062 62.351562 124.476562 59.605469 122.039062 56.789062 C 119.863281 54.269531 117.027344 52.007812 114.082031 50.410156 L 114.082031 27.734375 C 114.195312 27.675781 114.292969 27.699219 114.410156 27.628906 C 115.046875 27.222656 115.882812 26.359375 115.824219 25.175781 C 115.804688 24.511719 115.515625 23.824219 115.117188 23.375 C 114.75 22.964844 114.367188 22.757812 114.027344 22.613281 C 114.007812 22.289062 113.984375 22.023438 113.917969 21.632812 C 113.808594 21 113.632812 20.261719 113.15625 19.558594 C 112.9375 19.242188 112.394531 19.207031 112.011719 18.960938 C 112.011719 18.941406 112.011719 18.925781 112.011719 18.90625 C 111.707031 18.492188 111.214844 18.226562 110.703125 18.199219 C 110.683594 18.195312 110.664062 18.199219 110.648438 18.199219 C 110.628906 18.199219 110.609375 18.199219 110.59375 18.199219 C 106.769531 18.199219 103.105469 18.199219 99.800781 18.199219 Z M 68.679688 56.515625 C 67.273438 56.523438 66.480469 58.640625 67.535156 59.566406 C 68.953125 60.929688 70.179688 62.261719 71.023438 63.4375 C 71.863281 64.613281 72.222656 65.652344 72.222656 65.890625 L 72.222656 93.199219 C 72.207031 94.117188 73.042969 94.964844 73.964844 94.964844 C 74.886719 94.964844 75.722656 94.117188 75.710938 93.199219 L 75.710938 65.890625 C 75.710938 64.242188 74.894531 62.867188 73.855469 61.421875 C 72.820312 59.976562 71.453125 58.464844 69.933594 57.003906 C 69.601562 56.683594 69.136719 56.503906 68.679688 56.515625 Z M 73.746094 100.121094 C 72.890625 100.226562 72.1875 101.054688 72.222656 101.917969 L 72.222656 103.664062 C 72.207031 104.585938 73.042969 105.433594 73.964844 105.433594 C 74.886719 105.433594 75.722656 104.585938 75.710938 103.664062 L 75.710938 101.917969 C 75.75 100.910156 74.75 99.992188 73.746094 100.121094 Z M 73.746094 100.121094 " fill-opacity="1" fill-rule="nonzero"/></g></g></g></g><g fill="#ffffff" fill-opacity="1"><g transform="translate(88.705076, 202.499987)"><g><path d="M 28.921875 0 L 21.234375 0 L 8.8125 -21.609375 L 8.640625 -21.609375 C 8.878906 -17.785156 9 -15.0625 9 -13.4375 L 9 0 L 3.59375 0 L 3.59375 -28.5625 L 11.234375 -28.5625 L 23.640625 -7.171875 L 23.765625 -7.171875 C 23.578125 -10.878906 23.484375 -13.503906 23.484375 -15.046875 L 23.484375 -28.5625 L 28.921875 -28.5625 Z M 28.921875 0 "/></g></g></g><g fill="#ffffff" fill-opacity="1"><g transform="translate(121.221435, 202.499987)"><g><path d="M 20.046875 0 L 3.59375 0 L 3.59375 -28.5625 L 20.046875 -28.5625 L 20.046875 -23.59375 L 9.65625 -23.59375 L 9.65625 -17.328125 L 19.3125 -17.328125 L 19.3125 -12.359375 L 9.65625 -12.359375 L 9.65625 -5 L 20.046875 -5 Z M 20.046875 0 "/></g></g></g><g fill="#ffffff" fill-opacity="1"><g transform="translate(143.621595, 202.499987)"><g><path d="M 14.4375 -16.03125 L 25.765625 -16.03125 L 25.765625 -1.234375 C 23.929688 -0.628906 22.203125 -0.207031 20.578125 0.03125 C 18.953125 0.269531 17.296875 0.390625 15.609375 0.390625 C 11.296875 0.390625 8.003906 -0.875 5.734375 -3.40625 C 3.460938 -5.9375 2.328125 -9.570312 2.328125 -14.3125 C 2.328125 -18.925781 3.644531 -22.519531 6.28125 -25.09375 C 8.914062 -27.675781 12.570312 -28.96875 17.25 -28.96875 C 20.175781 -28.96875 23 -28.378906 25.71875 -27.203125 L 23.71875 -22.359375 C 21.632812 -23.398438 19.460938 -23.921875 17.203125 -23.921875 C 14.585938 -23.921875 12.492188 -23.039062 10.921875 -21.28125 C 9.347656 -19.53125 8.5625 -17.171875 8.5625 -14.203125 C 8.5625 -11.097656 9.191406 -8.726562 10.453125 -7.09375 C 11.722656 -5.46875 13.570312 -4.65625 16 -4.65625 C 17.257812 -4.65625 18.539062 -4.785156 19.84375 -5.046875 L 19.84375 -11 L 14.4375 -11 Z M 14.4375 -16.03125 "/></g></g></g><g fill="#ffffff" fill-opacity="1"><g transform="translate(172.583614, 202.499987)"><g><path d="M 29.515625 -14.3125 C 29.515625 -9.59375 28.34375 -5.960938 26 -3.421875 C 23.65625 -0.878906 20.296875 0.390625 15.921875 0.390625 C 11.546875 0.390625 8.1875 -0.878906 5.84375 -3.421875 C 3.5 -5.960938 2.328125 -9.609375 2.328125 -14.359375 C 2.328125 -19.109375 3.5 -22.734375 5.84375 -25.234375 C 8.195312 -27.742188 11.566406 -29 15.953125 -29 C 20.347656 -29 23.707031 -27.734375 26.03125 -25.203125 C 28.351562 -22.679688 29.515625 -19.050781 29.515625 -14.3125 Z M 8.671875 -14.3125 C 8.671875 -11.125 9.273438 -8.722656 10.484375 -7.109375 C 11.703125 -5.492188 13.515625 -4.6875 15.921875 -4.6875 C 20.753906 -4.6875 23.171875 -7.894531 23.171875 -14.3125 C 23.171875 -20.75 20.765625 -23.96875 15.953125 -23.96875 C 13.546875 -23.96875 11.726562 -23.15625 10.5 -21.53125 C 9.28125 -19.914062 8.671875 -17.507812 8.671875 -14.3125 Z M 8.671875 -14.3125 "/></g></g></g><g fill="#ffffff" fill-opacity="1"><g transform="translate(204.41644, 202.499987)"><g><path d="M 20.453125 -7.9375 C 20.453125 -5.351562 19.523438 -3.316406 17.671875 -1.828125 C 15.816406 -0.347656 13.234375 0.390625 9.921875 0.390625 C 6.878906 0.390625 4.1875 -0.179688 1.84375 -1.328125 L 1.84375 -6.953125 C 3.769531 -6.097656 5.398438 -5.492188 6.734375 -5.140625 C 8.066406 -4.785156 9.285156 -4.609375 10.390625 -4.609375 C 11.722656 -4.609375 12.742188 -4.863281 13.453125 -5.375 C 14.160156 -5.882812 14.515625 -6.640625 14.515625 -7.640625 C 14.515625 -8.203125 14.359375 -8.695312 14.046875 -9.125 C 13.734375 -9.5625 13.273438 -9.984375 12.671875 -10.390625 C 12.066406 -10.796875 10.832031 -11.441406 8.96875 -12.328125 C 7.21875 -13.148438 5.90625 -13.9375 5.03125 -14.6875 C 4.164062 -15.445312 3.472656 -16.328125 2.953125 -17.328125 C 2.429688 -18.328125 2.171875 -19.5 2.171875 -20.84375 C 2.171875 -23.363281 3.023438 -25.347656 4.734375 -26.796875 C 6.453125 -28.242188 8.820312 -28.96875 11.84375 -28.96875 C 13.320312 -28.96875 14.734375 -28.789062 16.078125 -28.4375 C 17.429688 -28.082031 18.84375 -27.585938 20.3125 -26.953125 L 18.359375 -22.25 C 16.835938 -22.875 15.578125 -23.304688 14.578125 -23.546875 C 13.585938 -23.796875 12.609375 -23.921875 11.640625 -23.921875 C 10.492188 -23.921875 9.613281 -23.65625 9 -23.125 C 8.394531 -22.59375 8.09375 -21.894531 8.09375 -21.03125 C 8.09375 -20.5 8.210938 -20.035156 8.453125 -19.640625 C 8.703125 -19.242188 9.097656 -18.859375 9.640625 -18.484375 C 10.179688 -18.117188 11.460938 -17.453125 13.484375 -16.484375 C 16.148438 -15.210938 17.976562 -13.929688 18.96875 -12.640625 C 19.957031 -11.359375 20.453125 -9.789062 20.453125 -7.9375 Z M 20.453125 -7.9375 "/></g></g></g><g fill="#ffffff" fill-opacity="1"><g transform="translate(226.445537, 202.499987)"><g><path d="M 26.84375 -28.5625 L 26.84375 -10.078125 C 26.84375 -7.972656 26.367188 -6.125 25.421875 -4.53125 C 24.472656 -2.945312 23.109375 -1.726562 21.328125 -0.875 C 19.546875 -0.03125 17.4375 0.390625 15 0.390625 C 11.332031 0.390625 8.484375 -0.546875 6.453125 -2.421875 C 4.421875 -4.304688 3.40625 -6.882812 3.40625 -10.15625 L 3.40625 -28.5625 L 9.4375 -28.5625 L 9.4375 -11.078125 C 9.4375 -8.878906 9.878906 -7.265625 10.765625 -6.234375 C 11.648438 -5.203125 13.113281 -4.6875 15.15625 -4.6875 C 17.132812 -4.6875 18.566406 -5.203125 19.453125 -6.234375 C 20.347656 -7.273438 20.796875 -8.898438 20.796875 -11.109375 L 20.796875 -28.5625 Z M 26.84375 -28.5625 "/></g></g></g><g fill="#ffffff" fill-opacity="1"><g transform="translate(256.676957, 202.499987)"><g><path d="M 27.28125 -14.546875 C 27.28125 -9.847656 25.941406 -6.25 23.265625 -3.75 C 20.597656 -1.25 16.738281 0 11.6875 0 L 3.59375 0 L 3.59375 -28.5625 L 12.5625 -28.5625 C 17.21875 -28.5625 20.832031 -27.328125 23.40625 -24.859375 C 25.988281 -22.398438 27.28125 -18.960938 27.28125 -14.546875 Z M 21 -14.390625 C 21 -20.523438 18.289062 -23.59375 12.875 -23.59375 L 9.65625 -23.59375 L 9.65625 -5 L 12.25 -5 C 18.082031 -5 21 -8.128906 21 -14.390625 Z M 21 -14.390625 "/></g></g></g></svg>