<svg xmlns="http://www.w3.org/2000/svg" xmlns:xlink="http://www.w3.org/1999/xlink" width="500" zoomAndPan="magnify" viewBox="0 0 375 374.999991" height="500" preserveAspectRatio="xMidYMid meet" version="1.0"><defs><g/><clipPath id="b674a7eece"><path d="M 37.5 154 L 85 154 L 85 239 L 37.5 239 Z M 37.5 154 " clip-rule="nonzero"/></clipPath><clipPath id="1cd57c314e"><path d="M 85 135.445312 L 91 135.445312 L 91 148 L 85 148 Z M 85 135.445312 " clip-rule="nonzero"/></clipPath></defs><rect x="-37.5" width="450" fill="#ffffff" y="-37.499999" height="449.999989" fill-opacity="1"/><rect x="-37.5" width="450" fill="#d9230f" y="-37.499999" height="449.999989" fill-opacity="1"/><path fill="#ffffff" d="M 137.867188 231.320312 C 137.789062 231.007812 137.648438 230.722656 137.453125 230.464844 C 137.257812 230.207031 137.023438 230 136.742188 229.835938 C 136.460938 229.675781 136.164062 229.574219 135.839844 229.53125 C 135.519531 229.492188 135.203125 229.511719 134.894531 229.597656 L 129.097656 231.226562 L 121.246094 203.316406 C 121.960938 203.023438 122.660156 202.695312 123.34375 202.332031 C 124.023438 201.964844 124.6875 201.566406 125.324219 201.128906 C 125.964844 200.695312 126.578125 200.226562 127.167969 199.726562 C 127.757812 199.226562 128.320312 198.695312 128.851562 198.132812 C 129.382812 197.570312 129.886719 196.984375 130.355469 196.371094 C 130.824219 195.753906 131.261719 195.117188 131.664062 194.457031 C 132.066406 193.796875 132.433594 193.117188 132.761719 192.417969 C 133.089844 191.714844 133.382812 191 133.636719 190.269531 C 133.886719 189.539062 134.101562 188.796875 134.277344 188.042969 C 134.449219 187.289062 134.582031 186.527344 134.675781 185.761719 C 134.769531 184.992188 134.820312 184.222656 134.832031 183.449219 C 134.839844 182.675781 134.8125 181.902344 134.738281 181.132812 C 134.667969 180.363281 134.554688 179.597656 134.402344 178.839844 C 134.25 178.082031 134.054688 177.332031 133.820312 176.597656 C 133.589844 175.859375 133.316406 175.136719 133.007812 174.425781 C 132.695312 173.71875 132.351562 173.027344 131.964844 172.355469 L 123.027344 156.695312 C 122.761719 156.230469 122.425781 155.816406 122.023438 155.460938 C 121.617188 155.105469 121.167969 154.828125 120.667969 154.625 C 120.171875 154.417969 119.652344 154.300781 119.117188 154.269531 C 118.578125 154.238281 118.050781 154.296875 117.535156 154.445312 L 94.320312 160.9375 C 93.800781 161.082031 93.316406 161.308594 92.871094 161.617188 C 92.429688 161.925781 92.046875 162.296875 91.726562 162.734375 C 91.410156 163.171875 91.167969 163.648438 91.011719 164.167969 C 90.851562 164.683594 90.785156 165.214844 90.804688 165.753906 L 91.320312 183.824219 C 91.34375 184.523438 91.398438 185.21875 91.484375 185.910156 C 91.574219 186.601562 91.691406 187.289062 91.847656 187.96875 C 92 188.652344 92.1875 189.324219 92.40625 189.984375 C 92.621094 190.648438 92.871094 191.300781 93.152344 191.9375 C 93.433594 192.578125 93.746094 193.203125 94.085938 193.8125 C 94.425781 194.421875 94.796875 195.011719 95.191406 195.585938 C 95.589844 196.160156 96.015625 196.714844 96.464844 197.246094 C 96.917969 197.777344 97.390625 198.289062 97.890625 198.777344 C 98.390625 199.265625 98.914062 199.726562 99.457031 200.164062 C 100 200.601562 100.566406 201.011719 101.148438 201.394531 C 101.734375 201.777344 102.332031 202.128906 102.949219 202.457031 C 103.570312 202.78125 104.199219 203.074219 104.847656 203.339844 C 105.492188 203.605469 106.148438 203.835938 106.816406 204.039062 C 107.488281 204.242188 108.164062 204.410156 108.847656 204.546875 C 109.53125 204.683594 110.222656 204.785156 110.917969 204.855469 C 111.609375 204.925781 112.308594 204.960938 113.003906 204.964844 C 114.21875 204.960938 115.421875 204.863281 116.617188 204.664062 L 124.472656 232.636719 L 118.679688 234.261719 C 118.402344 234.34375 118.148438 234.46875 117.914062 234.640625 C 117.683594 234.8125 117.488281 235.019531 117.332031 235.265625 C 117.175781 235.507812 117.0625 235.769531 117 236.050781 C 116.9375 236.332031 116.925781 236.617188 116.964844 236.902344 C 117.007812 237.1875 117.09375 237.460938 117.230469 237.714844 C 117.367188 237.96875 117.542969 238.191406 117.761719 238.382812 C 117.976562 238.574219 118.222656 238.71875 118.492188 238.824219 C 118.761719 238.925781 119.039062 238.980469 119.328125 238.984375 C 119.550781 238.984375 119.765625 238.957031 119.980469 238.898438 L 128.085938 236.621094 L 136.207031 234.332031 C 136.519531 234.246094 136.800781 234.101562 137.054688 233.902344 C 137.308594 233.703125 137.511719 233.460938 137.667969 233.175781 C 137.824219 232.894531 137.921875 232.589844 137.957031 232.269531 C 137.992188 231.949219 137.960938 231.632812 137.867188 231.320312 Z M 118.835938 159.046875 L 127.269531 173.835938 C 126.914062 174.402344 126.507812 174.929688 126.054688 175.417969 C 125.597656 175.90625 125.105469 176.347656 124.566406 176.742188 C 124.03125 177.136719 123.460938 177.480469 122.859375 177.769531 C 122.257812 178.058594 121.636719 178.289062 120.992188 178.460938 C 120.347656 178.632812 119.691406 178.742188 119.027344 178.792969 C 118.363281 178.84375 117.699219 178.828125 117.035156 178.753906 C 116.375 178.679688 115.722656 178.542969 115.085938 178.347656 C 114.449219 178.148438 113.835938 177.894531 113.246094 177.585938 C 112.566406 177.226562 111.867188 176.921875 111.140625 176.667969 C 110.417969 176.414062 109.679688 176.214844 108.925781 176.070312 C 108.171875 175.925781 107.410156 175.835938 106.644531 175.804688 C 105.875 175.773438 105.113281 175.796875 104.347656 175.878906 C 103.585938 175.957031 102.832031 176.09375 102.089844 176.289062 C 101.347656 176.480469 100.621094 176.726562 99.914062 177.027344 C 99.207031 177.324219 98.527344 177.675781 97.875 178.074219 C 97.21875 178.476562 96.597656 178.921875 96.007812 179.414062 L 95.609375 165.574219 Z M 103.042969 196.796875 C 101.316406 195.53125 99.882812 193.992188 98.742188 192.175781 C 97.605469 190.359375 96.839844 188.398438 96.453125 186.292969 C 96.589844 186.160156 96.707031 186.011719 96.804688 185.847656 C 97.148438 185.265625 97.550781 184.71875 98 184.210938 C 98.453125 183.703125 98.945312 183.242188 99.484375 182.828125 C 100.023438 182.414062 100.597656 182.058594 101.203125 181.753906 C 101.8125 181.449219 102.441406 181.203125 103.09375 181.019531 C 103.75 180.835938 104.414062 180.714844 105.089844 180.660156 C 105.769531 180.601562 106.445312 180.609375 107.121094 180.683594 C 107.792969 180.753906 108.457031 180.890625 109.105469 181.085938 C 109.757812 181.285156 110.382812 181.542969 110.980469 181.859375 C 111.722656 182.25 112.492188 182.582031 113.285156 182.847656 C 114.078125 183.113281 114.890625 183.316406 115.714844 183.453125 C 116.542969 183.585938 117.375 183.65625 118.214844 183.65625 C 119.050781 183.660156 119.886719 183.59375 120.710938 183.460938 C 121.539062 183.324219 122.351562 183.128906 123.144531 182.863281 C 123.941406 182.597656 124.710938 182.273438 125.453125 181.882812 C 126.195312 181.496094 126.902344 181.046875 127.570312 180.546875 C 128.242188 180.042969 128.867188 179.488281 129.449219 178.886719 C 129.679688 179.726562 129.839844 180.582031 129.9375 181.453125 C 130.035156 182.320312 130.0625 183.191406 130.023438 184.0625 C 129.984375 184.9375 129.878906 185.800781 129.707031 186.65625 C 129.535156 187.511719 129.296875 188.351562 128.992188 189.167969 C 128.691406 189.988281 128.324219 190.78125 127.898438 191.542969 C 127.472656 192.304688 126.992188 193.03125 126.453125 193.71875 C 125.914062 194.40625 125.324219 195.046875 124.6875 195.644531 C 124.046875 196.238281 123.367188 196.78125 122.644531 197.273438 C 121.921875 197.761719 121.164062 198.195312 120.375 198.566406 C 119.585938 198.941406 118.769531 199.25 117.933594 199.496094 C 117.09375 199.742188 116.242188 199.921875 115.375 200.039062 C 114.511719 200.152344 113.640625 200.199219 112.765625 200.175781 C 111.894531 200.15625 111.027344 200.066406 110.167969 199.910156 C 109.308594 199.753906 108.464844 199.535156 107.640625 199.246094 C 106.816406 198.960938 106.019531 198.613281 105.246094 198.199219 C 104.476562 197.789062 103.742188 197.324219 103.042969 196.796875 Z M 103.042969 196.796875 " fill-opacity="1" fill-rule="nonzero"/><g clip-path="url(#b674a7eece)"><path fill="#ffffff" d="M 81.382812 160.9375 L 58.171875 154.445312 C 57.652344 154.296875 57.125 154.238281 56.589844 154.269531 C 56.050781 154.300781 55.535156 154.417969 55.035156 154.625 C 54.539062 154.828125 54.085938 155.105469 53.683594 155.460938 C 53.28125 155.816406 52.945312 156.230469 52.679688 156.695312 L 43.738281 172.355469 C 43.355469 173.027344 43.007812 173.71875 42.699219 174.425781 C 42.386719 175.136719 42.117188 175.859375 41.882812 176.597656 C 41.652344 177.332031 41.457031 178.082031 41.304688 178.839844 C 41.152344 179.597656 41.039062 180.363281 40.96875 181.132812 C 40.894531 181.902344 40.863281 182.675781 40.875 183.449219 C 40.886719 184.222656 40.9375 184.992188 41.03125 185.761719 C 41.121094 186.527344 41.257812 187.289062 41.429688 188.042969 C 41.605469 188.796875 41.816406 189.539062 42.070312 190.269531 C 42.324219 191 42.613281 191.714844 42.945312 192.417969 C 43.273438 193.117188 43.640625 193.796875 44.042969 194.457031 C 44.445312 195.117188 44.878906 195.753906 45.351562 196.371094 C 45.820312 196.984375 46.320312 197.570312 46.855469 198.132812 C 47.386719 198.695312 47.949219 199.226562 48.539062 199.726562 C 49.125 200.226562 49.742188 200.695312 50.378906 201.128906 C 51.019531 201.566406 51.679688 201.964844 52.363281 202.332031 C 53.042969 202.695312 53.742188 203.023438 54.460938 203.316406 L 46.605469 231.273438 L 40.871094 229.597656 C 40.566406 229.511719 40.253906 229.488281 39.9375 229.523438 C 39.617188 229.5625 39.320312 229.660156 39.042969 229.816406 C 38.761719 229.972656 38.523438 230.175781 38.328125 230.425781 C 38.128906 230.675781 37.984375 230.953125 37.898438 231.261719 C 37.8125 231.570312 37.785156 231.882812 37.824219 232.199219 C 37.863281 232.515625 37.957031 232.816406 38.113281 233.09375 C 38.269531 233.371094 38.472656 233.609375 38.722656 233.808594 C 38.972656 234.007812 39.253906 234.148438 39.558594 234.238281 L 47.679688 236.527344 L 55.785156 238.800781 C 56 238.859375 56.214844 238.886719 56.4375 238.886719 C 56.726562 238.882812 57.003906 238.832031 57.273438 238.726562 C 57.542969 238.625 57.789062 238.476562 58.003906 238.285156 C 58.222656 238.09375 58.398438 237.871094 58.535156 237.617188 C 58.671875 237.363281 58.761719 237.09375 58.800781 236.804688 C 58.839844 236.519531 58.828125 236.234375 58.765625 235.953125 C 58.703125 235.671875 58.589844 235.410156 58.433594 235.167969 C 58.277344 234.925781 58.082031 234.71875 57.851562 234.542969 C 57.617188 234.371094 57.363281 234.246094 57.085938 234.164062 L 51.292969 232.539062 L 59.148438 204.566406 C 60.34375 204.765625 61.546875 204.867188 62.761719 204.867188 C 63.457031 204.863281 64.148438 204.824219 64.839844 204.753906 C 65.53125 204.683594 66.21875 204.578125 66.898438 204.441406 C 67.578125 204.304688 68.253906 204.136719 68.917969 203.933594 C 69.582031 203.734375 70.238281 203.5 70.878906 203.238281 C 71.523438 202.972656 72.152344 202.679688 72.765625 202.355469 C 73.378906 202.03125 73.976562 201.679688 74.558594 201.296875 C 75.140625 200.917969 75.703125 200.507812 76.242188 200.074219 C 76.785156 199.636719 77.304688 199.179688 77.804688 198.695312 C 78.300781 198.210938 78.773438 197.703125 79.226562 197.171875 C 79.675781 196.640625 80.097656 196.09375 80.492188 195.523438 C 80.890625 194.949219 81.257812 194.363281 81.601562 193.757812 C 81.941406 193.152344 82.25 192.53125 82.53125 191.894531 C 82.8125 191.261719 83.0625 190.613281 83.28125 189.953125 C 83.503906 189.292969 83.691406 188.625 83.84375 187.949219 C 84 187.269531 84.121094 186.589844 84.214844 185.898438 C 84.304688 185.210938 84.359375 184.519531 84.382812 183.824219 L 84.902344 165.753906 C 84.921875 165.214844 84.851562 164.683594 84.695312 164.167969 C 84.535156 163.648438 84.296875 163.171875 83.976562 162.734375 C 83.660156 162.296875 83.277344 161.925781 82.832031 161.617188 C 82.386719 161.308594 81.90625 161.082031 81.382812 160.9375 Z M 56.871094 159.082031 L 80.082031 165.609375 L 79.6875 179.453125 C 79.097656 178.957031 78.476562 178.511719 77.820312 178.113281 C 77.164062 177.710938 76.484375 177.363281 75.777344 177.0625 C 75.070312 176.761719 74.347656 176.515625 73.605469 176.324219 C 72.859375 176.132812 72.109375 175.996094 71.34375 175.914062 C 70.582031 175.832031 69.816406 175.808594 69.050781 175.839844 C 68.285156 175.871094 67.523438 175.960938 66.769531 176.105469 C 66.015625 176.25 65.277344 176.449219 64.550781 176.703125 C 63.828125 176.957031 63.125 177.261719 62.449219 177.621094 C 61.859375 177.933594 61.246094 178.1875 60.609375 178.382812 C 59.96875 178.582031 59.320312 178.714844 58.65625 178.792969 C 57.996094 178.867188 57.332031 178.878906 56.664062 178.828125 C 56 178.78125 55.347656 178.667969 54.703125 178.496094 C 54.058594 178.324219 53.433594 178.09375 52.832031 177.804688 C 52.234375 177.515625 51.664062 177.175781 51.125 176.777344 C 50.589844 176.382812 50.09375 175.941406 49.640625 175.453125 C 49.1875 174.964844 48.78125 174.4375 48.425781 173.875 Z M 72.664062 196.796875 C 71.964844 197.324219 71.230469 197.789062 70.457031 198.199219 C 69.6875 198.613281 68.890625 198.960938 68.066406 199.246094 C 67.238281 199.535156 66.398438 199.753906 65.539062 199.910156 C 64.679688 200.066406 63.8125 200.15625 62.9375 200.175781 C 62.066406 200.199219 61.195312 200.152344 60.328125 200.039062 C 59.464844 199.921875 58.609375 199.742188 57.773438 199.496094 C 56.933594 199.25 56.121094 198.941406 55.332031 198.566406 C 54.542969 198.195312 53.785156 197.761719 53.0625 197.273438 C 52.339844 196.78125 51.65625 196.238281 51.019531 195.644531 C 50.382812 195.046875 49.792969 194.40625 49.253906 193.71875 C 48.714844 193.03125 48.234375 192.304688 47.808594 191.542969 C 47.378906 190.78125 47.015625 189.988281 46.714844 189.167969 C 46.410156 188.351562 46.171875 187.511719 46 186.65625 C 45.824219 185.800781 45.71875 184.9375 45.679688 184.0625 C 45.644531 183.191406 45.671875 182.320312 45.769531 181.453125 C 45.863281 180.582031 46.027344 179.726562 46.257812 178.886719 C 46.839844 179.488281 47.464844 180.042969 48.132812 180.546875 C 48.804688 181.046875 49.511719 181.496094 50.253906 181.882812 C 50.996094 182.273438 51.765625 182.597656 52.558594 182.863281 C 53.355469 183.128906 54.167969 183.324219 54.992188 183.460938 C 55.820312 183.59375 56.652344 183.660156 57.492188 183.65625 C 58.328125 183.65625 59.160156 183.585938 59.988281 183.453125 C 60.816406 183.316406 61.625 183.113281 62.421875 182.847656 C 63.214844 182.582031 63.984375 182.25 64.722656 181.859375 C 65.324219 181.542969 65.949219 181.285156 66.597656 181.085938 C 67.25 180.890625 67.910156 180.753906 68.585938 180.683594 C 69.261719 180.609375 69.9375 180.601562 70.613281 180.660156 C 71.292969 180.714844 71.957031 180.835938 72.609375 181.019531 C 73.265625 181.203125 73.894531 181.449219 74.5 181.753906 C 75.109375 182.058594 75.683594 182.414062 76.222656 182.828125 C 76.757812 183.242188 77.253906 183.703125 77.707031 184.210938 C 78.15625 184.71875 78.554688 185.265625 78.902344 185.847656 C 79 186.011719 79.117188 186.160156 79.25 186.292969 C 78.863281 188.398438 78.101562 190.359375 76.960938 192.175781 C 75.824219 193.992188 74.390625 195.53125 72.664062 196.796875 Z M 72.664062 196.796875 " fill-opacity="1" fill-rule="nonzero"/></g><g clip-path="url(#1cd57c314e)"><path fill="#ffffff" d="M 87.851562 135.941406 C 87.535156 135.941406 87.226562 136 86.929688 136.125 C 86.636719 136.246094 86.375 136.421875 86.148438 136.644531 C 85.921875 136.871094 85.75 137.132812 85.628906 137.429688 C 85.503906 137.722656 85.445312 138.03125 85.445312 138.351562 L 85.445312 145.578125 C 85.445312 145.898438 85.503906 146.203125 85.628906 146.5 C 85.75 146.792969 85.921875 147.054688 86.148438 147.28125 C 86.375 147.507812 86.636719 147.679688 86.929688 147.804688 C 87.226562 147.925781 87.535156 147.988281 87.851562 147.988281 C 88.171875 147.988281 88.480469 147.925781 88.773438 147.804688 C 89.070312 147.679688 89.332031 147.507812 89.554688 147.28125 C 89.78125 147.054688 89.957031 146.792969 90.078125 146.5 C 90.199219 146.203125 90.261719 145.898438 90.261719 145.578125 L 90.261719 138.351562 C 90.261719 138.03125 90.199219 137.722656 90.078125 137.429688 C 89.957031 137.132812 89.78125 136.871094 89.554688 136.644531 C 89.332031 136.421875 89.070312 136.246094 88.773438 136.125 C 88.480469 136 88.171875 135.941406 87.851562 135.941406 Z M 87.851562 135.941406 " fill-opacity="1" fill-rule="nonzero"/></g><path fill="#ffffff" d="M 99.753906 151.746094 C 100.417969 151.742188 100.984375 151.503906 101.453125 151.035156 L 106.574219 145.925781 C 106.796875 145.699219 106.972656 145.441406 107.09375 145.144531 C 107.214844 144.847656 107.277344 144.542969 107.277344 144.222656 C 107.277344 143.902344 107.214844 143.597656 107.09375 143.300781 C 106.972656 143.003906 106.796875 142.746094 106.570312 142.519531 C 106.34375 142.292969 106.085938 142.121094 105.789062 141.996094 C 105.496094 141.875 105.1875 141.8125 104.867188 141.8125 C 104.546875 141.8125 104.242188 141.875 103.945312 141.996094 C 103.648438 142.117188 103.390625 142.292969 103.164062 142.519531 L 98.042969 147.6875 C 97.695312 148.03125 97.472656 148.441406 97.378906 148.921875 C 97.28125 149.402344 97.328125 149.867188 97.515625 150.320312 C 97.703125 150.773438 98 151.132812 98.410156 151.402344 C 98.816406 151.675781 99.265625 151.808594 99.753906 151.804688 Z M 99.753906 151.746094 " fill-opacity="1" fill-rule="nonzero"/><path fill="#ffffff" d="M 74.253906 151.035156 C 74.722656 151.503906 75.289062 151.742188 75.953125 151.746094 C 76.425781 151.738281 76.863281 151.597656 77.257812 151.332031 C 77.652344 151.0625 77.941406 150.710938 78.128906 150.273438 C 78.3125 149.832031 78.363281 149.378906 78.277344 148.910156 C 78.195312 148.441406 77.988281 148.03125 77.660156 147.6875 L 72.542969 142.578125 C 72.316406 142.351562 72.054688 142.179688 71.761719 142.054688 C 71.464844 141.933594 71.15625 141.875 70.839844 141.875 C 70.519531 141.875 70.210938 141.933594 69.917969 142.058594 C 69.621094 142.179688 69.359375 142.355469 69.132812 142.578125 C 68.910156 142.804688 68.734375 143.066406 68.613281 143.359375 C 68.488281 143.65625 68.429688 143.964844 68.429688 144.28125 C 68.429688 144.601562 68.488281 144.910156 68.613281 145.203125 C 68.734375 145.5 68.90625 145.761719 69.132812 145.988281 Z M 74.253906 151.035156 " fill-opacity="1" fill-rule="nonzero"/><g fill="#ffffff" fill-opacity="1"><g transform="translate(168.411569, 200.33633)"><g><path d="M 24.75 0 L 18.171875 0 L 7.53125 -18.484375 L 7.390625 -18.484375 C 7.597656 -15.222656 7.703125 -12.894531 7.703125 -11.5 L 7.703125 0 L 3.078125 0 L 3.078125 -24.4375 L 9.609375 -24.4375 L 20.21875 -6.140625 L 20.34375 -6.140625 C 20.175781 -9.316406 20.09375 -11.5625 20.09375 -12.875 L 20.09375 -24.4375 L 24.75 -24.4375 Z M 24.75 0 "/></g></g></g><g fill="#ffffff" fill-opacity="1"><g transform="translate(196.237594, 200.33633)"><g><path d="M 17.15625 0 L 3.078125 0 L 3.078125 -24.4375 L 17.15625 -24.4375 L 17.15625 -20.1875 L 8.25 -20.1875 L 8.25 -14.828125 L 16.53125 -14.828125 L 16.53125 -10.578125 L 8.25 -10.578125 L 8.25 -4.28125 L 17.15625 -4.28125 Z M 17.15625 0 "/></g></g></g><g fill="#ffffff" fill-opacity="1"><g transform="translate(215.406634, 200.33633)"><g><path d="M 12.359375 -13.71875 L 22.046875 -13.71875 L 22.046875 -1.046875 C 20.472656 -0.535156 18.992188 -0.179688 17.609375 0.015625 C 16.222656 0.222656 14.804688 0.328125 13.359375 0.328125 C 9.671875 0.328125 6.851562 -0.753906 4.90625 -2.921875 C 2.957031 -5.085938 1.984375 -8.195312 1.984375 -12.25 C 1.984375 -16.195312 3.113281 -19.273438 5.375 -21.484375 C 7.632812 -23.691406 10.765625 -24.796875 14.765625 -24.796875 C 17.265625 -24.796875 19.679688 -24.289062 22.015625 -23.28125 L 20.296875 -19.140625 C 18.515625 -20.035156 16.660156 -20.484375 14.734375 -20.484375 C 12.484375 -20.484375 10.6875 -19.726562 9.34375 -18.21875 C 8 -16.71875 7.328125 -14.695312 7.328125 -12.15625 C 7.328125 -9.5 7.867188 -7.472656 8.953125 -6.078125 C 10.035156 -4.679688 11.613281 -3.984375 13.6875 -3.984375 C 14.769531 -3.984375 15.867188 -4.09375 16.984375 -4.3125 L 16.984375 -9.40625 L 12.359375 -9.40625 Z M 12.359375 -13.71875 "/></g></g></g><g fill="#ffffff" fill-opacity="1"><g transform="translate(240.191016, 200.33633)"><g><path d="M 25.265625 -12.25 C 25.265625 -8.207031 24.257812 -5.097656 22.25 -2.921875 C 20.238281 -0.753906 17.363281 0.328125 13.625 0.328125 C 9.875 0.328125 6.992188 -0.753906 4.984375 -2.921875 C 2.984375 -5.097656 1.984375 -8.21875 1.984375 -12.28125 C 1.984375 -16.351562 2.988281 -19.460938 5 -21.609375 C 7.019531 -23.753906 9.90625 -24.828125 13.65625 -24.828125 C 17.414062 -24.828125 20.289062 -23.742188 22.28125 -21.578125 C 24.269531 -19.421875 25.265625 -16.3125 25.265625 -12.25 Z M 7.421875 -12.25 C 7.421875 -9.519531 7.9375 -7.460938 8.96875 -6.078125 C 10.007812 -4.703125 11.5625 -4.015625 13.625 -4.015625 C 17.757812 -4.015625 19.828125 -6.757812 19.828125 -12.25 C 19.828125 -17.757812 17.769531 -20.515625 13.65625 -20.515625 C 11.59375 -20.515625 10.035156 -19.816406 8.984375 -18.421875 C 7.941406 -17.035156 7.421875 -14.976562 7.421875 -12.25 Z M 7.421875 -12.25 "/></g></g></g><g fill="#ffffff" fill-opacity="1"><g transform="translate(267.432104, 200.33633)"><g><path d="M 17.5 -6.78125 C 17.5 -4.582031 16.703125 -2.847656 15.109375 -1.578125 C 13.523438 -0.304688 11.316406 0.328125 8.484375 0.328125 C 5.878906 0.328125 3.578125 -0.160156 1.578125 -1.140625 L 1.578125 -5.953125 C 3.222656 -5.210938 4.613281 -4.691406 5.75 -4.390625 C 6.894531 -4.085938 7.941406 -3.9375 8.890625 -3.9375 C 10.023438 -3.9375 10.894531 -4.15625 11.5 -4.59375 C 12.113281 -5.03125 12.421875 -5.675781 12.421875 -6.53125 C 12.421875 -7.007812 12.285156 -7.4375 12.015625 -7.8125 C 11.753906 -8.1875 11.363281 -8.546875 10.84375 -8.890625 C 10.320312 -9.234375 9.265625 -9.785156 7.671875 -10.546875 C 6.179688 -11.242188 5.0625 -11.914062 4.3125 -12.5625 C 3.5625 -13.21875 2.960938 -13.972656 2.515625 -14.828125 C 2.078125 -15.679688 1.859375 -16.6875 1.859375 -17.84375 C 1.859375 -20 2.585938 -21.695312 4.046875 -22.9375 C 5.515625 -24.175781 7.539062 -24.796875 10.125 -24.796875 C 11.394531 -24.796875 12.609375 -24.644531 13.765625 -24.34375 C 14.921875 -24.039062 16.128906 -23.613281 17.390625 -23.0625 L 15.71875 -19.046875 C 14.40625 -19.578125 13.320312 -19.945312 12.46875 -20.15625 C 11.625 -20.375 10.789062 -20.484375 9.96875 -20.484375 C 8.976562 -20.484375 8.222656 -20.253906 7.703125 -19.796875 C 7.179688 -19.335938 6.921875 -18.738281 6.921875 -18 C 6.921875 -17.539062 7.023438 -17.140625 7.234375 -16.796875 C 7.453125 -16.460938 7.789062 -16.132812 8.25 -15.8125 C 8.707031 -15.5 9.800781 -14.929688 11.53125 -14.109375 C 13.8125 -13.015625 15.375 -11.914062 16.21875 -10.8125 C 17.070312 -9.71875 17.5 -8.375 17.5 -6.78125 Z M 17.5 -6.78125 "/></g></g></g><g fill="#ffffff" fill-opacity="1"><g transform="translate(286.283606, 200.33633)"><g><path d="M 22.96875 -24.4375 L 22.96875 -8.625 C 22.96875 -6.820312 22.5625 -5.238281 21.75 -3.875 C 20.945312 -2.519531 19.78125 -1.476562 18.25 -0.75 C 16.726562 -0.03125 14.925781 0.328125 12.84375 0.328125 C 9.695312 0.328125 7.253906 -0.472656 5.515625 -2.078125 C 3.773438 -3.691406 2.90625 -5.894531 2.90625 -8.6875 L 2.90625 -24.4375 L 8.078125 -24.4375 L 8.078125 -9.484375 C 8.078125 -7.597656 8.453125 -6.210938 9.203125 -5.328125 C 9.960938 -4.453125 11.21875 -4.015625 12.96875 -4.015625 C 14.664062 -4.015625 15.894531 -4.457031 16.65625 -5.34375 C 17.414062 -6.226562 17.796875 -7.617188 17.796875 -9.515625 L 17.796875 -24.4375 Z M 22.96875 -24.4375 "/></g></g></g><g fill="#ffffff" fill-opacity="1"><g transform="translate(312.154283, 200.33633)"><g><path d="M 23.359375 -12.453125 C 23.359375 -8.429688 22.210938 -5.347656 19.921875 -3.203125 C 17.628906 -1.066406 14.320312 0 10 0 L 3.078125 0 L 3.078125 -24.4375 L 10.75 -24.4375 C 14.738281 -24.4375 17.835938 -23.382812 20.046875 -21.28125 C 22.253906 -19.175781 23.359375 -16.234375 23.359375 -12.453125 Z M 17.96875 -12.3125 C 17.96875 -17.5625 15.648438 -20.1875 11.015625 -20.1875 L 8.25 -20.1875 L 8.25 -4.28125 L 10.484375 -4.28125 C 15.472656 -4.28125 17.96875 -6.957031 17.96875 -12.3125 Z M 17.96875 -12.3125 "/></g></g></g></svg>